<svg width="146.330017" height="102.000000" viewBox="0 0 146.33 102" fill="none" xmlns="http://www.w3.org/2000/svg" xmlns:xlink="http://www.w3.org/1999/xlink">
	<desc>
			Created with Pixso.
	</desc>
	<defs/>
	<mask id="mask44_663" mask-type="alpha" maskUnits="userSpaceOnUse" x="0.000000" y="11.514648" width="146.330017" height="78.970703">
		<path id="Vector" d="M0 11.51L146.33 11.51L146.33 90.48L0 90.48L0 11.51Z" fill="#000000" fill-opacity="1.000000" fill-rule="evenodd"/>
	</mask>
	<g mask="url(#mask44_663)">
		<path id="Vector" d="M60.5 48.46L55.41 48.46L55.41 70.12L60.5 70.12L60.5 48.46Z" fill="#778187" fill-opacity="1.000000" fill-rule="nonzero"/>
		<path id="Vector" d="M83.97 48.46L83.97 56.92C84.54 56.38 85.22 55.96 85.95 55.69C86.69 55.42 87.47 55.3 88.26 55.34C93.08 55.34 95.21 59.29 95.21 62.97C95.21 66.66 93.08 70.6 88.26 70.6C85.68 70.6 84.09 69.4 83.37 68.23L83.37 70.14L78.88 70.14L78.88 48.46L83.97 48.46ZM86.88 59.51C86.28 59.51 85.69 59.68 85.17 60C84.66 60.31 84.24 60.77 83.97 61.31L83.97 64.61C84.24 65.15 84.66 65.61 85.17 65.93C85.69 66.24 86.28 66.41 86.88 66.41C89.04 66.41 89.96 64.65 89.96 62.97C89.96 61.3 89.04 59.53 86.88 59.53L86.88 59.51Z" fill="#778187" fill-opacity="1.000000" fill-rule="nonzero"/>
		<path id="Vector" d="M111.32 55.76L111.32 70.14L106.82 70.14L106.82 68.47C106.25 69.13 105.55 69.66 104.76 70.02C103.97 70.38 103.11 70.57 102.24 70.57C98.29 70.57 96.48 67.91 96.48 64.67L96.48 55.76L101.57 55.76L101.57 63.98C101.54 64.28 101.58 64.58 101.68 64.86C101.78 65.14 101.94 65.39 102.15 65.6C102.36 65.81 102.61 65.97 102.89 66.08C103.17 66.18 103.47 66.22 103.76 66.19C104.24 66.18 104.71 66.06 105.13 65.84C105.56 65.63 105.93 65.32 106.22 64.94L106.22 55.76L111.32 55.76Z" fill="#778187" fill-opacity="1.000000" fill-rule="nonzero"/>
		<path id="Vector" d="M119.67 55.31C122.24 55.31 123.83 56.5 124.55 57.68L124.55 55.76L129.05 55.76L129.05 69.52C129.05 75.26 124.88 77.15 120.54 77.15C118.39 77.17 116.27 76.71 114.33 75.81L115.52 72.08C116.89 72.66 118.36 72.96 119.85 72.97C122.16 72.97 123.95 72.27 123.95 69.81L123.95 68.96C123.38 69.5 122.71 69.91 121.97 70.18C121.23 70.46 120.45 70.58 119.67 70.54C114.85 70.54 112.72 66.59 112.72 62.91C112.72 59.23 114.85 55.28 119.67 55.28L119.67 55.31ZM121.05 59.47C118.89 59.47 117.96 61.23 117.96 62.91C117.96 64.59 118.89 66.34 121.05 66.34C121.65 66.35 122.23 66.2 122.75 65.89C123.26 65.59 123.68 65.14 123.95 64.62L123.95 61.29C123.68 60.75 123.27 60.3 122.76 59.98C122.24 59.67 121.65 59.5 121.05 59.5L121.05 59.47Z" fill="#778187" fill-opacity="1.000000" fill-rule="nonzero"/>
		<path id="Vector" d="M53.73 66.98L54.3 70.04C53.47 70.34 52.6 70.49 51.72 70.49C51.06 70.54 50.4 70.42 49.8 70.15C49.21 69.87 48.69 69.44 48.31 68.91C46.89 70.05 45.12 70.66 43.3 70.64C40.54 70.61 38.33 68.96 38.33 66.19C38.33 62.57 41.78 61.46 44.56 61.46C45.61 61.45 46.65 61.57 47.67 61.79L47.67 61.27C47.67 60.26 46.72 59.48 44.68 59.48C43.26 59.51 41.85 59.78 40.51 60.27L39.64 56.33C41.46 55.74 43.34 55.41 45.25 55.36C49.83 55.36 52.77 56.94 52.77 62.07L52.77 66.08C52.77 66.77 53.25 66.97 53.76 66.97L53.73 66.98ZM45.31 67.19C46.16 67.21 47 66.95 47.68 66.44L47.68 64.48C47.09 64.3 46.47 64.21 45.86 64.21C44.65 64.21 43.58 64.63 43.58 65.79C43.58 66.54 44.24 67.19 45.32 67.19L45.31 67.19Z" fill="#778187" fill-opacity="1.000000" fill-rule="nonzero"/>
		<path id="Vector" d="M77.23 66.98L77.8 70.04C76.97 70.34 76.1 70.49 75.22 70.49C74.56 70.54 73.9 70.43 73.3 70.15C72.71 69.87 72.19 69.44 71.81 68.91C70.38 70.04 68.61 70.65 66.79 70.61C64.03 70.61 61.78 68.96 61.78 66.19C61.78 62.56 65.22 61.45 68.01 61.45C69.06 61.45 70.1 61.56 71.13 61.78L71.13 61.27C71.13 60.25 70.17 59.48 68.13 59.48C66.71 59.51 65.3 59.77 63.97 60.27L63.1 56.32C64.91 55.73 66.8 55.41 68.7 55.36C73.28 55.36 76.22 56.93 76.22 62.07L76.22 66.08C76.22 66.76 76.7 66.97 77.21 66.97L77.23 66.98ZM68.76 67.18C69.62 67.21 70.45 66.94 71.13 66.43L71.13 64.48C70.54 64.3 69.93 64.21 69.31 64.21C68.11 64.21 67.03 64.63 67.03 65.79C67.03 66.54 67.69 67.2 68.77 67.2L68.76 67.18Z" fill="#778187" fill-opacity="1.000000" fill-rule="nonzero"/>
		<path id="Vector" d="M145.76 66.98L146.33 70.04C145.5 70.34 144.63 70.49 143.75 70.49C143.09 70.54 142.43 70.42 141.83 70.15C141.23 69.87 140.72 69.44 140.33 68.91C138.92 70.05 137.15 70.66 135.33 70.64C132.57 70.64 130.32 68.99 130.32 66.22C130.32 62.59 133.77 61.48 136.56 61.48C137.6 61.48 138.65 61.59 139.67 61.81L139.67 61.3C139.67 60.28 138.71 59.51 136.67 59.51C135.25 59.54 133.84 59.8 132.51 60.3L131.64 56.35C133.45 55.76 135.34 55.44 137.24 55.39C141.83 55.39 144.77 56.97 144.77 62.1L144.77 66.11C144.77 66.79 145.24 67 145.76 67L145.76 66.98ZM137.31 67.21C138.16 67.24 139 66.97 139.68 66.46L139.68 64.48C139.09 64.3 138.47 64.21 137.85 64.21C136.65 64.21 135.58 64.63 135.58 65.79C135.58 66.54 136.23 67.19 137.32 67.19L137.31 67.21Z" fill="#778187" fill-opacity="1.000000" fill-rule="nonzero"/>
		<path id="Vector" d="M14.41 18.4L14.77 18.6L14.98 18.73L15.7 19.16L15.86 19.25L16.2 19.45L16.44 19.61L16.78 19.82L17.05 20L17.37 20.2L17.66 20.4L18.16 20.73L18.51 20.97L18.81 21.18L19.13 21.4L19.42 21.61L19.75 21.85L20.04 22.05L20.47 22.37L20.81 22.63L21.23 22.94L21.5 23.16L21.85 23.44L22.13 23.65L22.51 23.96L22.76 24.15L23.25 24.55L23.73 24.15L23.99 23.95L24.36 23.65L24.63 23.43C24.75 23.34 24.87 23.25 24.98 23.16L25.26 22.94L25.65 22.65L26.06 22.35L26.45 22.05L26.74 21.84L27.05 21.61L27.37 21.4L27.67 21.18L27.97 20.97L28.29 20.72L28.84 20.35L29.11 20.17L29.45 19.96L29.72 19.82L30.05 19.61L30.29 19.46L30.65 19.24L30.74 19.24L31.52 18.68L31.77 18.6L32.14 18.4L32.31 18.3C29.48 15.79 26.45 13.52 23.25 11.51C20.06 13.52 17.04 15.79 14.23 18.3L14.41 18.4Z" fill="#778187" fill-opacity="1.000000" fill-rule="nonzero"/>
		<path id="Vector" d="M39.65 26.07L39.27 26.27L39.07 26.38L38.7 26.59L38.52 26.7L37.69 27.19L37.63 27.19L37.27 27.41L37.03 27.55L36.68 27.78L36.44 27.93L36.1 28.16L35.83 28.33L35.26 28.71L34.96 28.91L34.64 29.14L34.36 29.34L34.04 29.57L33.73 29.78L33.43 30.01L33.03 30.3C32.91 30.4 32.77 30.49 32.63 30.59L32.24 30.89L31.97 31.11L31.62 31.38L31.33 31.61L31.06 31.83L31.63 32.45L31.81 32.64L32.26 33.13L32.48 33.37L32.92 33.85L33.11 34.06L33.73 34.77L34.35 35.48L34.53 35.7L34.95 36.2L35.16 36.45L35.59 36.96C35.65 37.03 35.7 37.1 35.76 37.16L36.33 37.88L36.42 37.98L36.91 38.6L37.1 38.84L37.48 39.34L37.68 39.59L37.92 39.91L38.31 39.59L38.58 39.39L38.95 39.15L39.2 38.95L39.65 38.62L39.95 38.38L40.4 38.06L40.68 37.85L41.02 37.61L41.32 37.4L41.63 37.17L41.92 36.97L42.3 36.71L42.76 36.41C42.86 36.33 42.97 36.26 43.08 36.2L43.39 36L43.66 35.81L43.99 35.61L44.26 35.45L44.59 35.24L44.79 35.12L45.46 34.73L45.68 34.6L46.02 34.4L46.25 34.28L46.49 34.14C44.73 31.69 42.79 29.24 40.7 26.85L39.9 25.94L39.79 26.01L39.63 26.09L39.65 26.07Z" fill="#778187" fill-opacity="1.000000" fill-rule="nonzero"/>
		<path id="Vector" d="M23.36 24.64L23.57 24.82L24.03 25.2L24.27 25.4L24.67 25.75L24.91 25.95L25.34 26.34L25.54 26.51L26.16 27.07L26.33 27.22L26.79 27.64L27.03 27.86L27.45 28.26L27.67 28.46L28.15 28.93L28.3 29.07L28.92 29.68L29.1 29.85L29.56 30.32L29.77 30.54L30.21 30.98L30.42 31.2C30.6 31.38 30.78 31.57 30.96 31.77C30.99 31.79 31.02 31.82 31.04 31.85L31.1 31.9L31.37 31.68L31.66 31.45L32.01 31.19L32.28 30.96L32.67 30.66L33.07 30.37L33.47 30.08C33.57 30 33.67 29.92 33.77 29.85L34.08 29.64L34.4 29.41L34.68 29.21L35 28.98L35.3 28.78L35.87 28.4L36.14 28.23L36.48 28L36.72 27.85L37.07 27.62L37.31 27.48L37.67 27.26L37.73 27.26L38.56 26.77L38.74 26.66L39.11 26.46L39.31 26.34L39.69 26.14L39.84 26.06L39.95 26C37.55 23.31 35 20.68 32.3 18.29L32.04 18.37L31.74 18.48L31.47 18.65L30.75 19.19L30.65 19.19L30.3 19.41L30.06 19.56L29.72 19.82L29.42 19.64L29.03 20.03L28.64 20.41L28.3 20.72L27.98 20.94L27.67 21.15L27.37 21.37L27.06 21.58L26.75 21.81L26.45 22.02L26.06 22.32L25.65 22.62L25.26 22.91L24.99 23.13L24.64 23.41L24.36 23.62L23.99 23.92L23.74 24.12L23.26 24.54L23.31 24.6L23.36 24.64Z" fill="#778187" fill-opacity="1.000000" fill-rule="nonzero"/>
		<path id="Vector" d="M0.47 34.38L0.82 34.58L1.04 34.71L1.7 35.1L1.9 35.22L2.23 35.42L2.5 35.59L2.82 35.79L3.07 35.98L3.39 36.18L3.7 36.39L4.16 36.69L4.54 36.95L4.82 37.15L5.15 37.38L5.44 37.58L5.78 37.83L6.05 38.04L6.5 38.36L6.81 38.6L7.25 38.93L7.51 39.13L7.88 39.42L8.14 39.63L8.53 39.94L8.78 39.62C8.84 39.53 8.91 39.45 8.97 39.37L9.35 38.87L9.55 38.63L10.03 38.03L10.12 37.91L10.7 37.2C10.76 37.13 10.82 37.06 10.87 36.99L11.3 36.48L11.51 36.23L11.93 35.73L12.12 35.51L12.73 34.8L13.35 34.09L13.55 33.88L13.98 33.4L14.19 33.16L14.64 32.67L14.83 32.48L15.45 31.82L15.15 31.59L14.86 31.33L14.55 31.03L14.22 30.88L13.83 30.55L13.49 30.25L13.05 30L12.78 29.76L12.45 29.53L12.15 29.34L11.84 29.12L11.55 28.89L11.27 28.74L10.73 28.38L10.45 28.2L10.12 27.98L9.86 27.81L9.52 27.6L9.24 27.43L8.88 27.22L8.77 27.12L8 26.67L7.84 26.54L7.47 26.34L7.28 26.24L6.92 26.03L6.72 25.97L6.59 25.9C6.33 26.2 6.04 26.52 5.79 26.83C3.7 29.22 1.76 31.67 0 34.12L0.24 34.26L0.47 34.38Z" fill="#778187" fill-opacity="1.000000" fill-rule="nonzero"/>
		<path id="Vector" d="M30.12 46.87L29.93 46.62L29.45 46.02C29.41 45.99 29.39 45.95 29.36 45.91L28.78 45.2L28.61 44.99L28.18 44.47L27.97 44.27L27.55 43.77L27.36 43.55L26.75 42.84C26.54 42.6 26.34 42.36 26.12 42.14L25.94 41.92L25.5 41.43L25.28 41.2C25.13 41.03 24.99 40.87 24.83 40.72L24.65 40.51L24.03 39.85L23.94 39.76C23.77 39.57 23.58 39.39 23.4 39.19L23.25 39.04L23.1 39.19L22.57 39.75L22.48 39.85L21.85 40.51L21.67 40.72L21.21 41.2L21 41.43L20.57 41.92L20.37 42.14L19.75 42.84L19.13 43.55L18.95 43.77L18.53 44.27L18.32 44.51L17.89 45.03L17.72 45.24L17.15 45.95L17.06 46.05L16.57 46.67L16.38 46.91L16.28 47.04L16.42 47.19L16.97 47.75L17.05 47.84L17.68 48.51L17.85 48.7L18.3 49.19L18.52 49.42L18.96 49.91L19.15 50.12L19.77 50.83L20.38 51.54L20.57 51.76L21 52.25L21.2 52.51L21.62 53.01L21.8 53.23L22.38 53.94L22.47 54.04L22.96 54.66L23.14 54.9L23.25 55.04L23.36 54.9L23.55 54.66L24.03 54.04L24.12 53.94L24.7 53.23L24.87 53.01L25.29 52.51L25.51 52.25L25.93 51.76L26.11 51.54L26.73 50.83L27.35 50.12L27.54 49.91L27.98 49.39L28.2 49.16L28.65 48.67L28.83 48.48C29.04 48.25 29.24 48.03 29.46 47.81L29.54 47.72L30.08 47.16L30.21 47.01L30.12 46.88L30.12 46.87Z" fill="#778187" fill-opacity="1.000000" fill-rule="nonzero"/>
		<path id="Vector" d="M6.83 26.05L7.2 26.26L7.39 26.37L7.76 26.57L7.96 26.69L8.75 27.16L8.84 27.22L9.2 27.43L9.43 27.58L9.77 27.79L10.04 27.97L10.37 28.18L10.64 28.36L11.19 28.72L11.5 28.94L11.81 29.15L12.12 29.37L12.43 29.58L12.74 29.82L13.03 30.03C13.17 30.13 13.31 30.23 13.45 30.34L13.81 30.61L14.22 30.92L14.5 31.13L14.85 31.41L15.12 31.62L15.36 31.85L15.41 31.8L15.5 31.71C15.68 31.52 15.86 31.33 16.03 31.15L16.25 30.93L16.67 30.49L16.9 30.27L17.39 29.82L17.57 29.63C17.78 29.43 17.98 29.22 18.2 29.03L18.41 28.9L18.88 28.45L19.12 28.22L19.44 27.87C19.51 27.79 19.59 27.72 19.67 27.65L20.12 27.24L20.31 27.06L20.91 26.52L21.13 26.33L21.55 25.97L21.81 25.74L22.19 25.42L22.44 25.2L22.87 24.83L23.07 24.67L23.21 24.53L22.8 24.18L22.51 23.94L22.13 23.64L21.86 23.42L21.49 23.14L21.22 22.93L20.8 22.61L20.46 22.36L20.03 22.04L19.75 21.83L19.44 21.6L19.14 21.38L18.82 21.17L18.53 20.95L18.14 20.71L17.63 20.37L17.39 20.19L17.06 19.98L16.79 19.81L16.46 19.59L16.21 19.44L15.87 19.23L15.72 19.14L14.99 18.71L14.78 18.59L14.43 18.38L14.24 18.28C11.55 20.68 8.99 23.22 6.59 25.91L6.7 25.97L6.87 26.05L6.83 26.05Z" fill="#778187" fill-opacity="1.000000" fill-rule="nonzero"/>
		<path id="Vector" d="M41.03 87.94L41.03 82.58L42.37 82.58C42.83 82.58 43.22 82.65 43.53 82.78C43.85 82.91 44.1 83.1 44.29 83.34C44.49 83.59 44.62 83.89 44.7 84.24C44.79 84.58 44.83 84.96 44.83 85.39C44.83 85.86 44.77 86.26 44.65 86.59C44.53 86.91 44.37 87.18 44.18 87.38C43.98 87.58 43.75 87.73 43.49 87.81C43.24 87.9 42.98 87.94 42.71 87.94L41.03 87.94ZM39.16 81.01L39.16 89.52L42.84 89.52C43.49 89.52 44.06 89.41 44.53 89.19C45.02 88.97 45.42 88.67 45.74 88.29C46.07 87.91 46.31 87.45 46.47 86.93C46.63 86.41 46.71 85.83 46.71 85.21C46.71 84.51 46.61 83.89 46.41 83.37C46.22 82.84 45.95 82.41 45.6 82.06C45.25 81.71 44.84 81.45 44.37 81.27C43.9 81.1 43.39 81.01 42.84 81.01L39.16 81.01Z" fill="#778187" fill-opacity="1.000000" fill-rule="nonzero"/>
		<path id="Vector" d="M48.01 81.01L48.01 89.52L54.48 89.52L54.48 87.94L49.88 87.94L49.88 85.86L54.02 85.86L54.02 84.4L49.88 84.4L49.88 82.58L54.39 82.58L54.39 81.01L48.01 81.01Z" fill="#778187" fill-opacity="1.000000" fill-rule="nonzero"/>
		<path id="Vector" d="M59.72 89.52L62.55 81.01L60.61 81.01L58.69 86.99L58.67 86.99L56.77 81.01L54.84 81.01L57.6 89.52L59.72 89.52Z" fill="#778187" fill-opacity="1.000000" fill-rule="nonzero"/>
		<path id="Vector" d="M63.28 81.01L63.28 89.52L69.75 89.52L69.75 87.94L65.15 87.94L65.15 85.86L69.28 85.86L69.28 84.4L65.15 84.4L65.15 82.58L69.65 82.58L69.65 81.01L63.28 81.01Z" fill="#778187" fill-opacity="1.000000" fill-rule="nonzero"/>
		<path id="Vector" d="M71.02 81.01L71.02 89.52L77.05 89.52L77.05 87.94L72.89 87.94L72.89 81.01L71.02 81.01Z" fill="#778187" fill-opacity="1.000000" fill-rule="nonzero"/>
		<path id="Vector" d="M79.6 85.3C79.6 84.92 79.64 84.56 79.72 84.21C79.81 83.86 79.94 83.55 80.13 83.28C80.31 83.01 80.55 82.79 80.84 82.63C81.14 82.46 81.5 82.38 81.92 82.38C82.34 82.38 82.7 82.46 82.99 82.63C83.29 82.79 83.53 83.01 83.71 83.28C83.89 83.55 84.02 83.86 84.1 84.21C84.19 84.56 84.23 84.92 84.23 85.3C84.23 85.66 84.19 86.01 84.1 86.35C84.02 86.68 83.89 86.98 83.71 87.25C83.53 87.52 83.29 87.74 82.99 87.91C82.7 88.07 82.34 88.15 81.92 88.15C81.5 88.15 81.14 88.07 80.84 87.91C80.55 87.74 80.31 87.52 80.13 87.25C79.94 86.98 79.81 86.68 79.72 86.35C79.64 86.01 79.6 85.66 79.6 85.3ZM77.73 85.3C77.73 85.92 77.82 86.5 78.01 87.04C78.2 87.57 78.48 88.03 78.84 88.43C79.2 88.83 79.63 89.14 80.15 89.37C80.68 89.6 81.26 89.71 81.92 89.71C82.58 89.71 83.17 89.6 83.68 89.37C84.2 89.14 84.64 88.83 85 88.43C85.36 88.03 85.63 87.57 85.82 87.04C86.01 86.5 86.11 85.92 86.11 85.3C86.11 84.66 86.01 84.07 85.82 83.53C85.63 82.99 85.36 82.51 85 82.1C84.64 81.7 84.2 81.38 83.68 81.15C83.17 80.92 82.58 80.81 81.92 80.81C81.26 80.81 80.68 80.92 80.15 81.15C79.63 81.38 79.2 81.7 78.84 82.1C78.48 82.51 78.2 82.99 78.01 83.53C77.82 84.07 77.73 84.66 77.73 85.3Z" fill="#778187" fill-opacity="1.000000" fill-rule="nonzero"/>
		<path id="Vector" d="M89.26 85.01L89.26 82.46L90.72 82.46C90.93 82.46 91.14 82.48 91.34 82.51C91.54 82.54 91.71 82.6 91.86 82.7C92.02 82.79 92.13 82.91 92.22 83.08C92.32 83.25 92.37 83.47 92.37 83.74C92.37 84.01 92.32 84.23 92.22 84.39C92.13 84.56 92.02 84.69 91.86 84.79C91.71 84.87 91.54 84.93 91.34 84.96C91.14 85 90.93 85.01 90.72 85.01L89.26 85.01ZM87.39 81.01L87.39 89.52L89.26 89.52L89.26 86.47L91.23 86.47C91.76 86.47 92.22 86.39 92.59 86.24C92.97 86.08 93.27 85.87 93.5 85.62C93.74 85.37 93.91 85.08 94.01 84.75C94.12 84.42 94.18 84.08 94.18 83.74C94.18 83.39 94.12 83.05 94.01 82.72C93.91 82.4 93.74 82.11 93.5 81.85C93.27 81.6 92.97 81.4 92.59 81.25C92.22 81.09 91.76 81.01 91.23 81.01L87.39 81.01Z" fill="#778187" fill-opacity="1.000000" fill-rule="nonzero"/>
		<path id="Vector" d="M95.35 81.01L95.35 89.52L97.11 89.52L97.11 83.55L97.13 83.55L99.22 89.52L100.67 89.52L102.76 83.49L102.78 83.49L102.78 89.52L104.53 89.52L104.53 81.01L101.9 81.01L100.01 86.86L99.98 86.86L97.99 81.01L95.35 81.01Z" fill="#778187" fill-opacity="1.000000" fill-rule="nonzero"/>
		<path id="Vector" d="M106.19 81.01L106.19 89.52L112.66 89.52L112.66 87.94L108.06 87.94L108.06 85.86L112.19 85.86L112.19 84.4L108.06 84.4L108.06 82.58L112.56 82.58L112.56 81.01L106.19 81.01Z" fill="#778187" fill-opacity="1.000000" fill-rule="nonzero"/>
		<path id="Vector" d="M113.93 81.01L113.93 89.52L115.68 89.52L115.68 83.82L115.71 83.82L119.25 89.52L121.13 89.52L121.13 81.01L119.37 81.01L119.37 86.72L119.35 86.72L115.79 81.01L113.93 81.01Z" fill="#778187" fill-opacity="1.000000" fill-rule="nonzero"/>
		<path id="Vector" d="M124.67 82.58L124.67 89.52L126.54 89.52L126.54 82.58L129.1 82.58L129.1 81.01L122.11 81.01L122.11 82.58L124.67 82.58Z" fill="#778187" fill-opacity="1.000000" fill-rule="nonzero"/>
		<path id="Vector" d="M44.7 84.24C44.62 83.89 44.49 83.59 44.3 83.34C44.1 83.1 43.85 82.91 43.53 82.78C43.22 82.65 42.84 82.58 42.37 82.58L41.04 82.58L41.04 87.94L42.71 87.94C42.98 87.94 43.24 87.9 43.5 87.81C43.75 87.72 43.98 87.58 44.18 87.38C44.38 87.17 44.53 86.91 44.65 86.58C44.77 86.26 44.83 85.86 44.83 85.39C44.83 84.96 44.79 84.58 44.7 84.24ZM44.09 87.3C44.28 87.11 44.43 86.86 44.55 86.54C44.66 86.23 44.72 85.85 44.72 85.39C44.72 84.97 44.67 84.59 44.59 84.26L44.59 84.26C44.51 83.93 44.38 83.64 44.2 83.41C44.03 83.18 43.79 83.01 43.49 82.89L43.49 82.89C43.19 82.76 42.82 82.7 42.37 82.7L41.15 82.7L41.15 87.83L42.71 87.83C42.97 87.83 43.22 87.78 43.46 87.7C43.7 87.62 43.91 87.49 44.09 87.3ZM39.05 80.89L42.84 80.89C43.4 80.89 43.92 80.98 44.41 81.16C44.9 81.34 45.33 81.61 45.68 81.97C46.04 82.34 46.32 82.79 46.52 83.33C46.72 83.87 46.82 84.5 46.82 85.21C46.82 85.84 46.74 86.43 46.58 86.96C46.42 87.5 46.17 87.97 45.83 88.36C45.5 88.76 45.08 89.07 44.58 89.3L44.58 89.3C44.09 89.52 43.5 89.63 42.84 89.63L39.05 89.63L39.05 80.89ZM45.6 82.06C45.26 81.71 44.85 81.44 44.37 81.27C43.9 81.09 43.39 81.01 42.84 81.01L39.16 81.01L39.16 89.51L42.84 89.51C43.49 89.51 44.06 89.41 44.53 89.19C45.02 88.97 45.42 88.67 45.74 88.29C46.07 87.91 46.31 87.45 46.47 86.93C46.63 86.4 46.71 85.83 46.71 85.21C46.71 84.51 46.61 83.89 46.41 83.37C46.22 82.84 45.95 82.4 45.6 82.06ZM47.9 80.89L54.5 80.89L54.5 82.7L50 82.7L50 84.29L54.13 84.29L54.13 85.97L50 85.97L50 87.83L54.6 87.83L54.6 89.63L47.9 89.63L47.9 80.89ZM54.48 87.94L54.48 89.51L48.01 89.51L48.01 81.01L54.39 81.01L54.39 82.58L49.89 82.58L49.89 84.4L54.02 84.4L54.02 85.86L49.89 85.86L49.89 87.94L54.48 87.94ZM59.8 89.63L57.52 89.63L54.69 80.89L56.85 80.89L58.68 86.64L60.53 80.89L62.71 80.89L59.8 89.63ZM60.61 81.01L62.55 81.01L59.72 89.51L57.61 89.51L54.85 81.01L56.77 81.01L58.67 86.99L58.69 86.99L60.61 81.01ZM63.16 80.89L69.77 80.89L69.77 82.7L65.27 82.7L65.27 84.29L69.4 84.29L69.4 85.97L65.27 85.97L65.27 87.83L69.86 87.83L69.86 89.63L63.16 89.63L63.16 80.89ZM69.75 87.94L69.75 89.51L63.28 89.51L63.28 81.01L69.65 81.01L69.65 82.58L65.15 82.58L65.15 84.4L69.28 84.4L69.28 85.86L65.15 85.86L65.15 87.94L69.75 87.94ZM70.9 80.89L73.01 80.89L73.01 87.83L77.16 87.83L77.16 89.63L70.9 89.63L70.9 80.89ZM77.05 87.94L77.05 89.51L71.02 89.51L71.02 81.01L72.89 81.01L72.89 87.94L77.05 87.94ZM80.13 83.28C79.94 83.55 79.81 83.86 79.72 84.21C79.64 84.56 79.6 84.92 79.6 85.3C79.6 85.65 79.64 86 79.72 86.34C79.81 86.68 79.94 86.98 80.13 87.25C80.31 87.52 80.55 87.74 80.84 87.91C81.14 88.06 81.49 88.14 81.92 88.14C82.34 88.14 82.7 88.06 82.99 87.91C83.29 87.74 83.52 87.52 83.71 87.25C83.89 86.98 84.02 86.68 84.1 86.34C84.19 86 84.23 85.65 84.23 85.3C84.23 84.92 84.19 84.56 84.1 84.21C84.02 83.86 83.89 83.55 83.71 83.28C83.52 83 83.29 82.79 82.99 82.63C82.7 82.46 82.34 82.38 81.92 82.38C81.49 82.38 81.14 82.46 80.84 82.63C80.55 82.79 80.31 83 80.13 83.28ZM82.94 87.8C83.21 87.65 83.44 87.44 83.61 87.19C83.79 86.93 83.91 86.64 83.99 86.32L83.99 86.32C84.07 85.98 84.12 85.64 84.12 85.3C84.12 84.93 84.07 84.58 83.99 84.24L83.99 84.24C83.91 83.9 83.79 83.6 83.61 83.35L83.61 83.35C83.44 83.08 83.21 82.88 82.94 82.73L82.93 82.73C82.66 82.57 82.32 82.49 81.92 82.49C81.51 82.49 81.17 82.57 80.9 82.73L80.9 82.73C80.62 82.88 80.4 83.08 80.22 83.35L80.22 83.35C80.05 83.6 79.92 83.9 79.83 84.24C79.76 84.58 79.72 84.93 79.72 85.3C79.72 85.64 79.75 85.98 79.83 86.32C79.92 86.64 80.05 86.93 80.22 87.19C80.39 87.44 80.62 87.65 80.9 87.8C81.17 87.95 81.51 88.03 81.92 88.03C82.32 88.03 82.66 87.95 82.94 87.8ZM77.9 87.07C77.71 86.52 77.61 85.93 77.61 85.3C77.61 84.65 77.71 84.05 77.9 83.49C78.1 82.93 78.38 82.44 78.75 82.03C79.12 81.61 79.57 81.28 80.1 81.04C80.64 80.81 81.25 80.69 81.92 80.69C82.59 80.69 83.2 80.81 83.73 81.04C84.26 81.28 84.71 81.61 85.08 82.03C85.45 82.44 85.74 82.93 85.93 83.49C86.13 84.05 86.22 84.65 86.22 85.3C86.22 85.93 86.13 86.52 85.93 87.07C85.74 87.62 85.45 88.1 85.08 88.51C84.71 88.92 84.26 89.24 83.73 89.48L83.73 89.48C83.2 89.71 82.59 89.82 81.92 89.82C81.25 89.82 80.65 89.71 80.1 89.48L80.1 89.48C79.57 89.24 79.12 88.92 78.75 88.51C78.38 88.1 78.1 87.62 77.9 87.07ZM78.01 83.53C77.82 84.07 77.73 84.66 77.73 85.3C77.73 85.92 77.82 86.5 78.01 87.04C78.2 87.57 78.48 88.03 78.84 88.43C79.19 88.83 79.63 89.14 80.15 89.37C80.67 89.59 81.26 89.71 81.92 89.71C82.58 89.71 83.17 89.59 83.68 89.37C84.2 89.14 84.64 88.83 85 88.43C85.36 88.03 85.63 87.57 85.82 87.04C86.01 86.5 86.11 85.92 86.11 85.3C86.11 84.66 86.01 84.07 85.82 83.53C85.63 82.98 85.36 82.51 85 82.1C84.64 81.7 84.2 81.38 83.68 81.15C83.17 80.92 82.58 80.8 81.92 80.8C81.26 80.8 80.67 80.92 80.15 81.15C79.63 81.38 79.19 81.7 78.84 82.1C78.48 82.51 78.2 82.98 78.01 83.53ZM91.87 82.7C91.72 82.6 91.54 82.54 91.34 82.51C91.14 82.48 90.94 82.46 90.72 82.46L89.26 82.46L89.26 85.01L90.72 85.01C90.94 85.01 91.14 84.99 91.34 84.96C91.54 84.93 91.72 84.87 91.87 84.78C92.02 84.69 92.14 84.56 92.23 84.39C92.32 84.22 92.37 84.01 92.37 83.74C92.37 83.47 92.32 83.25 92.23 83.08C92.14 82.91 92.02 82.79 91.87 82.7ZM89.38 84.89L90.72 84.89C90.93 84.89 91.13 84.88 91.32 84.85C91.51 84.82 91.67 84.76 91.81 84.68C91.94 84.6 92.04 84.49 92.12 84.34L92.12 84.33C92.21 84.19 92.25 83.99 92.25 83.74C92.25 83.48 92.21 83.28 92.12 83.14L92.12 83.13C92.04 82.98 91.94 82.87 91.81 82.8L91.81 82.8C91.67 82.71 91.51 82.65 91.32 82.62C91.13 82.59 90.93 82.58 90.72 82.58L89.38 82.58L89.38 84.89ZM87.27 80.89L91.23 80.89C91.78 80.89 92.25 80.97 92.64 81.14C93.03 81.29 93.34 81.51 93.59 81.77C93.84 82.04 94.02 82.34 94.13 82.69C94.24 83.02 94.3 83.37 94.3 83.74C94.3 84.09 94.24 84.44 94.13 84.78C94.02 85.13 93.84 85.43 93.59 85.7C93.34 85.97 93.03 86.18 92.64 86.34L92.64 86.35C92.25 86.5 91.78 86.58 91.23 86.58L89.38 86.58L89.38 89.63L87.27 89.63L87.27 80.89ZM93.5 85.62C93.74 85.36 93.91 85.07 94.02 84.75C94.13 84.41 94.18 84.08 94.18 83.74C94.18 83.39 94.13 83.05 94.02 82.72C93.91 82.4 93.74 82.11 93.5 81.85C93.27 81.6 92.97 81.4 92.6 81.24C92.22 81.09 91.77 81.01 91.23 81.01L87.39 81.01L87.39 89.51L89.26 89.51L89.26 86.46L91.23 86.46C91.77 86.46 92.22 86.39 92.6 86.24C92.97 86.08 93.27 85.87 93.5 85.62ZM95.24 80.89L98.08 80.89L100 86.52L101.81 80.89L104.65 80.89L104.65 89.63L102.66 89.63L102.66 84.11L100.75 89.63L99.14 89.63L97.22 84.16L97.22 89.63L95.24 89.63L95.24 80.89ZM97.11 83.54L97.13 83.54L99.22 89.51L100.67 89.51L102.76 83.49L102.78 83.49L102.78 89.51L104.54 89.51L104.54 81.01L101.9 81.01L100.01 86.86L99.99 86.86L97.99 81.01L95.35 81.01L95.35 89.51L97.11 89.51L97.11 83.54ZM106.07 80.89L112.68 80.89L112.68 82.7L108.18 82.7L108.18 84.29L112.31 84.29L112.31 85.97L108.18 85.97L108.18 87.83L112.77 87.83L112.77 89.63L106.07 89.63L106.07 80.89ZM112.66 87.94L112.66 89.51L106.19 89.51L106.19 81.01L112.56 81.01L112.56 82.58L108.06 82.58L108.06 84.4L112.19 84.4L112.19 85.86L108.06 85.86L108.06 87.94L112.66 87.94ZM113.81 80.89L115.86 80.89L119.26 86.35L119.26 80.89L121.24 80.89L121.24 89.63L119.19 89.63L115.8 84.19L115.8 89.63L113.81 89.63L113.81 80.89ZM115.68 83.82L115.71 83.82L119.25 89.51L121.13 89.51L121.13 81.01L119.37 81.01L119.37 86.71L119.35 86.71L115.79 81.01L113.93 81.01L113.93 89.51L115.68 89.51L115.68 83.82ZM122.11 82.58L122.11 81.01L129.1 81.01L129.1 82.58L126.54 82.58L126.54 89.51L124.67 89.51L124.67 82.58L122.11 82.58ZM124.55 82.7L121.99 82.7L121.99 80.89L129.21 80.89L129.21 82.7L126.66 82.7L126.66 89.63L124.55 89.63L124.55 82.7Z" fill="#778187" fill-opacity="1.000000" fill-rule="evenodd"/>
	</g>
</svg>
