<svg width="146.329956" height="150.000000" viewBox="0 0 146.33 150" fill="none" xmlns="http://www.w3.org/2000/svg" xmlns:xlink="http://www.w3.org/1999/xlink">
	<desc>
			Created with Pixso.
	</desc>
	<defs>
		<clipPath id="clip44_816">
			<rect id="gazprom" rx="0.000000" width="145.330002" height="149.000000" transform="translate(0.500000 0.500000)" fill="white" fill-opacity="0"/>
		</clipPath>
	</defs>
	<rect id="gazprom" rx="0.000000" width="145.330002" height="149.000000" transform="translate(0.500000 0.500000)" fill="#FFFFFF" fill-opacity="0"/>
	<g clip-path="url(#clip44_816)">
		<path id="Vector" d="M45.16 86.08L54.43 86.08L54.43 89.11L50.02 89.11L50.02 110.4L45.16 110.4L45.16 86.08Z" fill="#778187" fill-opacity="1.000000" fill-rule="nonzero"/>
		<path id="Vector" d="M59.93 101.27L60.77 89.11L61.05 89.11L61.88 101.27L59.93 101.27ZM54.55 110.4L59.31 110.4L59.76 103.94L62.05 103.94L62.51 110.4L67.26 110.4L64.73 86.08L57.09 86.08L54.55 110.4Z" fill="#778187" fill-opacity="1.000000" fill-rule="nonzero"/>
		<path id="Vector" d="M74.23 101.89L74.23 106.47C74.23 107.09 74.71 107.27 74.99 107.27C75.44 107.27 75.76 106.89 75.76 106.47L75.76 100.81C75.76 100.05 75.62 99.21 73.81 99.21L71.84 99.21L71.84 96.54L73.89 96.54C75.27 96.54 75.76 96.22 75.76 94.73L75.76 89.9C75.76 89.48 75.44 89.11 74.99 89.11C74.71 89.11 74.23 89.27 74.23 89.9L74.23 93.87L69.36 93.87L69.36 90.42C69.36 88.73 69.56 86.08 72.97 86.08L77 86.08C80.41 86.08 80.63 88.73 80.63 90.42L80.63 94.31C80.63 96.96 78.77 97.68 77.32 97.62L77.32 97.86C80.59 97.78 80.63 100.29 80.63 101.15L80.63 106.05C80.63 107.77 80.41 110.4 77 110.4L72.97 110.4C69.56 110.4 69.36 107.77 69.36 106.05L69.36 101.89L74.23 101.89Z" fill="#778187" fill-opacity="1.000000" fill-rule="nonzero"/>
		<path id="Vector" d="M83.81 86.08L95.08 86.08L95.08 110.4L90.21 110.4L90.21 89.11L88.68 89.11L88.68 110.4L83.81 110.4L83.81 86.08Z" fill="#778187" fill-opacity="1.000000" fill-rule="nonzero"/>
		<path id="Vector" d="M103.14 99.45L103.14 89.11L103.77 89.11C104.29 89.11 104.67 89.54 104.67 90.32L104.67 98.24C104.67 99.01 104.29 99.45 103.77 99.45L103.14 99.45ZM98.27 110.4L103.14 110.4L103.14 102.12L105.93 102.12C109.32 102.12 109.53 99.49 109.53 97.78L109.53 90.42C109.53 88.73 109.32 86.08 105.93 86.08L98.27 86.08L98.27 110.4Z" fill="#778187" fill-opacity="1.000000" fill-rule="nonzero"/>
		<path id="Vector" d="M119.13 106.47C119.13 106.89 118.81 107.27 118.35 107.27C118.07 107.27 117.59 107.09 117.59 106.47L117.59 89.9C117.59 89.27 118.07 89.11 118.35 89.11C118.81 89.11 119.13 89.48 119.13 89.9L119.13 106.47ZM112.73 106.05C112.73 107.77 112.95 110.4 116.34 110.4L120.38 110.4C123.77 110.4 123.99 107.77 123.99 106.05L123.99 90.42C123.99 88.73 123.77 86.08 120.38 86.08L116.34 86.08C112.95 86.08 112.73 88.73 112.73 90.42L112.73 106.05Z" fill="#778187" fill-opacity="1.000000" fill-rule="nonzero"/>
		<path id="Vector" d="M139.82 86.08L146.16 86.08L146.16 110.4L141.29 110.4L141.29 95.15L141.11 95.15L138.6 110.4L134.71 110.4L132.22 95.15L132.04 95.15L132.04 110.4L127.18 110.4L127.18 86.08L133.5 86.08L136.67 103.18L139.82 86.08Z" fill="#778187" fill-opacity="1.000000" fill-rule="nonzero"/>
		<path id="Vector" d="M38.86 52.82C37.37 46.3 33.64 41 33.12 40.14C32.31 41.36 29.33 46.04 27.82 51.23C26.17 57.03 25.92 62.17 26.49 67.22C27.06 72.28 29.2 77.48 29.2 77.48C30.33 80.19 32.04 83.12 33.15 84.56C34.77 82.45 38.5 76.15 39.67 67.93C40.32 63.35 40.34 59.34 38.86 52.82ZM33.12 82.93C32.39 81.55 31.25 78.94 31.15 74.87C31.12 70.96 32.69 67.59 33.15 66.9C33.55 67.59 34.91 70.53 35.07 74.53C35.18 78.44 33.88 81.53 33.12 82.93ZM38.42 63.89C38.37 66.38 38.07 69.01 37.69 70.58C37.83 67.87 37.5 64.07 36.88 61.08C36.26 58.11 34.5 53.12 33.09 50.83C31.8 53.02 30.2 57.33 29.36 61.06C28.52 64.78 28.49 69.31 28.49 70.66C28.27 69.53 27.71 65.44 27.87 61.35C28 57.99 28.79 54.5 29.22 52.9C30.87 47.58 32.74 44.17 33.09 43.63C33.44 44.17 35.8 48.38 37.02 52.78C38.23 57.19 38.48 61.41 38.42 63.89Z" fill="#778187" fill-opacity="1.000000" fill-rule="nonzero"/>
		<path id="Vector" d="M35.65 86.07L24.33 86.07L24.33 93.67C24.34 93.67 24.34 93.65 24.35 93.65C27.02 90.98 31.35 90.98 34.02 93.65C36.68 96.3 36.68 100.63 34.02 103.3C34 103.32 33.99 103.32 33.98 103.34C33.97 103.34 33.95 103.36 33.94 103.38C31.28 106.01 27.8 107.33 24.33 107.33C20.83 107.33 17.34 106.01 14.68 103.34C9.98 98.65 9.42 91.38 13 86.07C13.49 85.36 14.04 84.68 14.68 84.04C17.34 81.37 20.83 80.05 24.33 80.05L24.33 61.79C10.9 61.79 0.03 72.66 0.03 86.07C0.03 99.49 10.9 110.38 24.33 110.38C31.32 110.38 37.63 107.41 42.06 102.68L42.06 86.07L35.65 86.07Z" fill="#778187" fill-opacity="1.000000" fill-rule="nonzero"/>
	</g>
</svg>
