<svg width="146.330017" height="150.000000" viewBox="0 0 146.33 150" fill="none" xmlns="http://www.w3.org/2000/svg" xmlns:xlink="http://www.w3.org/1999/xlink">
	<desc>
			Created with Pixso.
	</desc>
	<defs>
		<clipPath id="clip44_770">
			<rect id="graitek" rx="0.000000" width="145.330002" height="149.000000" transform="translate(0.500000 0.500000)" fill="white" fill-opacity="0"/>
		</clipPath>
	</defs>
	<rect id="graitek" rx="0.000000" width="145.330002" height="149.000000" transform="translate(0.500000 0.500000)" fill="#FFFFFF" fill-opacity="0"/>
	<g clip-path="url(#clip44_770)">
		<path id="Vector" d="M102.53 81.8L102.53 89.06C102.53 89.22 102.53 89.39 102.52 89.56C102.52 89.69 102.45 89.78 102.33 89.78C102.27 89.79 102.22 89.79 102.16 89.79C101.4 89.79 100.63 89.79 99.87 89.79C99.78 89.79 99.68 89.78 99.59 89.76C99.56 89.75 99.53 89.71 99.52 89.68C99.51 89.62 99.5 89.57 99.5 89.51C99.5 89.35 99.5 89.18 99.5 89.01L99.5 80.13C99.5 79.97 99.49 79.8 99.48 79.63C99.48 79.62 99.46 79.61 99.45 79.6C99.43 79.6 99.4 79.6 99.4 79.6C99.34 79.68 99.28 79.74 99.23 79.82C98.28 81.36 97.32 82.89 96.37 84.42L93.35 89.31C93.29 89.41 93.22 89.5 93.17 89.6C93.09 89.75 92.96 89.8 92.8 89.79C92.78 89.79 92.76 89.79 92.74 89.79C91.89 89.79 91.03 89.79 90.17 89.79C90.08 89.78 89.99 89.77 89.9 89.75C89.87 89.75 89.84 89.71 89.82 89.68C89.81 89.64 89.8 89.61 89.8 89.57C89.8 89.42 89.8 89.27 89.8 89.12L89.8 74.49C89.8 74.36 89.8 74.23 89.8 74.1C89.8 73.86 89.85 73.81 90.1 73.81C90.92 73.81 91.73 73.81 92.55 73.81C92.59 73.81 92.63 73.81 92.66 73.82C92.73 73.83 92.81 73.9 92.81 73.97C92.82 74.15 92.82 74.34 92.82 74.52C92.83 77.57 92.83 80.63 92.83 83.68C92.83 83.85 92.83 84.01 92.84 84.18C92.84 84.19 92.87 84.2 92.89 84.2C92.91 84.2 92.93 84.21 92.94 84.2C93 84.13 93.06 84.06 93.11 83.98C93.77 82.9 94.43 81.82 95.08 80.74C96.42 78.55 97.75 76.35 99.09 74.16C99.12 74.11 99.15 74.07 99.18 74.02C99.25 73.87 99.36 73.8 99.54 73.8C100.43 73.81 101.32 73.81 102.22 73.81C102.25 73.81 102.29 73.81 102.33 73.81C102.43 73.82 102.51 73.89 102.52 73.98C102.52 74.08 102.53 74.17 102.53 74.26C102.53 74.63 102.53 75 102.53 75.38L102.53 81.8ZM119.53 81.75L119.53 74.55C119.53 74.38 119.53 74.21 119.53 74.04C119.54 73.88 119.6 73.82 119.77 73.81C119.9 73.81 120.04 73.81 120.17 73.81L130.73 73.81C130.89 73.81 131.06 73.81 131.23 73.82C131.29 73.82 131.36 73.9 131.37 73.97C131.37 74.03 131.38 74.08 131.38 74.14C131.38 74.83 131.38 75.52 131.38 76.2C131.38 76.26 131.37 76.32 131.37 76.37C131.37 76.43 131.28 76.52 131.23 76.52C131.06 76.53 130.89 76.54 130.73 76.54C128.51 76.54 126.29 76.54 124.08 76.54C123.76 76.54 123.44 76.54 123.13 76.54C123.07 76.54 123.02 76.54 122.96 76.55C122.86 76.55 122.78 76.63 122.78 76.72C122.77 76.81 122.77 76.9 122.77 77C122.77 77.87 122.77 78.75 122.77 79.62C122.77 79.73 122.78 79.84 122.79 79.95C122.8 79.98 122.84 80.02 122.87 80.03C122.92 80.04 122.98 80.05 123.03 80.05C123.2 80.06 123.37 80.06 123.54 80.06C125.73 80.06 127.93 80.06 130.13 80.06C130.3 80.06 130.46 80.06 130.63 80.07C130.7 80.07 130.78 80.14 130.78 80.21C130.79 80.28 130.8 80.35 130.8 80.43C130.8 81.08 130.8 81.73 130.8 82.38C130.8 82.44 130.79 82.49 130.79 82.55C130.78 82.66 130.72 82.73 130.63 82.74C130.57 82.75 130.52 82.75 130.46 82.75C130.31 82.75 130.16 82.75 130.01 82.75C127.83 82.75 125.66 82.75 123.48 82.75C123.29 82.75 123.1 82.76 122.92 82.77C122.85 82.78 122.78 82.85 122.78 82.92C122.77 83 122.76 83.07 122.76 83.14C122.76 84.34 122.76 85.53 122.77 86.72C122.77 86.81 122.78 86.9 122.8 86.99C122.8 87.02 122.84 87.05 122.87 87.06C122.93 87.08 122.98 87.09 123.04 87.09C123.2 87.09 123.37 87.09 123.54 87.09L130.97 87.09C131.16 87.09 131.34 87.1 131.53 87.1C131.6 87.11 131.67 87.17 131.68 87.24C131.69 87.31 131.69 87.39 131.7 87.46C131.7 88.11 131.7 88.77 131.7 89.42C131.7 89.47 131.69 89.53 131.69 89.58C131.68 89.71 131.62 89.77 131.47 89.78C131.42 89.78 131.36 89.79 131.3 89.79C131.19 89.79 131.08 89.79 130.97 89.79C127.39 89.79 123.82 89.79 120.24 89.78C120.06 89.78 119.87 89.78 119.68 89.77C119.61 89.77 119.54 89.69 119.54 89.62C119.53 89.44 119.53 89.25 119.53 89.07C119.53 86.63 119.53 84.19 119.53 81.75ZM48.1 59.2L48.1 51.83C48.1 51.14 48.04 51.2 48.73 51.2C52.55 51.2 56.36 51.2 60.18 51.2C60.87 51.2 60.82 51.14 60.82 51.82L60.82 66.57C60.82 66.72 60.82 66.86 60.81 67.01C60.81 67.08 60.74 67.16 60.67 67.16C60.62 67.17 60.56 67.18 60.51 67.18C59.63 67.18 58.76 67.18 57.88 67.18C57.83 67.18 57.76 67.18 57.72 67.16C57.67 67.14 57.62 67.09 57.61 67.05C57.59 66.96 57.59 66.86 57.59 66.77C57.58 66.36 57.59 65.95 57.59 65.54L57.59 54.6C57.59 54.41 57.58 54.22 57.57 54.04C57.57 53.97 57.5 53.9 57.42 53.9C57.33 53.89 57.24 53.88 57.15 53.88C55.36 53.88 53.57 53.88 51.78 53.88C51.69 53.88 51.6 53.89 51.5 53.9C51.41 53.9 51.34 53.98 51.34 54.08C51.33 54.27 51.33 54.45 51.33 54.64L51.33 64.25C51.33 65.05 51.33 65.85 51.33 66.65C51.33 66.78 51.33 66.91 51.31 67.04C51.3 67.08 51.25 67.13 51.21 67.16C51.16 67.18 51.1 67.18 51.05 67.18C50.15 67.18 49.26 67.18 48.36 67.18C48.31 67.18 48.25 67.17 48.2 67.15C48.17 67.14 48.13 67.11 48.13 67.08C48.11 66.91 48.1 66.74 48.1 66.58C48.1 64.12 48.1 61.66 48.1 59.2ZM140.9 81.57C141 81.62 141.1 81.68 141.2 81.72C141.76 81.96 142.21 82.34 142.58 82.83C142.73 83.04 142.89 83.25 143.02 83.47C143.31 83.95 143.6 84.43 143.85 84.93C144.61 86.42 145.35 87.92 146.1 89.42C146.14 89.5 146.17 89.59 146.19 89.68C146.19 89.7 146.16 89.75 146.14 89.76C146.08 89.78 146.03 89.79 145.97 89.79C144.89 89.79 143.81 89.79 142.73 89.79C142.71 89.79 142.7 89.79 142.68 89.79C142.53 89.79 142.44 89.71 142.38 89.58C141.94 88.62 141.48 87.66 141.05 86.69C140.66 85.84 140.23 85.02 139.77 84.21C139.65 83.98 139.5 83.77 139.36 83.55C139.03 83.03 138.53 82.83 137.93 82.83C137.84 82.83 137.76 82.9 137.76 83.01C137.75 83.17 137.75 83.34 137.75 83.51C137.75 85.43 137.75 87.34 137.75 89.26C137.75 89.8 137.76 89.79 137.24 89.79C136.45 89.79 135.67 89.79 134.89 89.79C134.8 89.79 134.71 89.77 134.62 89.75C134.59 89.75 134.56 89.71 134.54 89.68C134.52 89.64 134.52 89.61 134.52 89.57C134.51 89.4 134.51 89.24 134.51 89.07L134.51 74.55C134.51 74.36 134.52 74.18 134.52 73.99C134.53 73.9 134.61 73.82 134.71 73.82C134.76 73.81 134.82 73.81 134.87 73.81C135.71 73.81 136.55 73.81 137.39 73.81C137.46 73.81 137.54 73.81 137.61 73.83C137.65 73.84 137.71 73.89 137.72 73.93C137.74 74.06 137.75 74.19 137.75 74.32C137.75 75.4 137.75 76.48 137.75 77.56C137.75 78.43 137.75 79.31 137.75 80.18C137.75 80.3 137.77 80.41 137.78 80.51C137.79 80.54 137.83 80.56 137.86 80.58C137.88 80.59 137.9 80.59 137.92 80.59C138.29 80.57 138.65 80.46 138.97 80.27C139.1 80.19 139.21 80.08 139.29 79.96C139.39 79.8 139.48 79.64 139.57 79.47C139.89 78.85 140.15 78.19 140.41 77.53C140.6 77.06 140.78 76.59 141.02 76.15C141.2 75.83 141.39 75.51 141.59 75.19C142 74.56 142.58 74.15 143.33 73.98C143.74 73.88 144.16 73.78 144.59 73.77C144.98 73.76 145.37 73.73 145.76 73.72C145.84 73.71 145.91 73.72 145.98 73.74C146.03 73.75 146.08 73.78 146.1 73.85C146.11 73.88 146.11 73.92 146.11 73.96C146.12 74.59 146.12 75.22 146.12 75.86C146.11 75.89 146.11 75.93 146.1 75.97C146.1 76.03 146.02 76.1 145.95 76.1C145.67 76.11 145.39 76.12 145.11 76.12C144.91 76.13 144.71 76.17 144.51 76.23C144.18 76.33 143.91 76.52 143.69 76.78C143.53 76.97 143.41 77.18 143.32 77.4C143.12 77.88 142.93 78.37 142.74 78.85C142.61 79.2 142.47 79.55 142.33 79.89C142.25 80.06 142.17 80.23 142.08 80.39C141.9 80.71 141.65 81 141.34 81.21C141.21 81.31 141.07 81.41 140.94 81.51C140.93 81.52 140.92 81.54 140.9 81.57ZM87.17 67.43C86.39 67.44 85.73 67.38 85.08 67.21C83.64 66.85 82.46 66.08 81.51 64.95C80.69 63.97 80.21 62.83 79.96 61.59C79.78 60.67 79.71 59.74 79.75 58.81C79.8 57.63 79.97 56.48 80.41 55.38C81.1 53.64 82.27 52.35 83.98 51.56C84.69 51.23 85.45 51.04 86.24 50.98C86.4 50.97 86.57 50.94 86.74 50.93C86.83 50.92 86.92 50.91 87.02 50.91C88.03 50.91 89.02 51.02 89.97 51.38C90.51 51.59 91.02 51.87 91.48 52.22C92.16 52.73 92.7 53.36 93.08 54.13C93.27 54.53 93.44 54.95 93.57 55.37C93.61 55.52 93.55 55.62 93.39 55.66C92.92 55.78 92.45 55.89 91.98 56C91.67 56.08 91.37 56.17 91.06 56.22C90.86 56.25 90.67 56.36 90.46 56.3C90.33 56.15 90.32 55.96 90.25 55.79C89.8 54.7 89.01 54.01 87.84 53.76C87.19 53.62 86.54 53.66 85.91 53.84C84.87 54.15 84.13 54.82 83.66 55.79C83.41 56.3 83.29 56.84 83.2 57.39C83.06 58.21 83.06 59.02 83.1 59.84C83.13 60.55 83.22 61.25 83.43 61.93C83.52 62.25 83.64 62.57 83.81 62.86C84.3 63.72 85.03 64.3 85.99 64.56C86.59 64.71 87.22 64.72 87.82 64.59C88.57 64.41 89.18 64 89.65 63.38C89.94 62.99 90.15 62.56 90.31 62.1C90.38 61.89 90.44 61.67 90.5 61.46C90.53 61.36 90.61 61.32 90.72 61.35C90.81 61.38 90.9 61.4 90.99 61.43C91.79 61.68 92.58 61.93 93.38 62.19C93.45 62.21 93.52 62.24 93.58 62.28C93.61 62.3 93.62 62.34 93.63 62.37C93.64 62.39 93.63 62.41 93.63 62.43C93.33 63.53 92.85 64.55 92.08 65.43C91.3 66.32 90.31 66.88 89.17 67.19C88.48 67.37 87.78 67.45 87.17 67.43ZM63.57 59.37C63.6 58.4 63.65 57.51 63.86 56.63C64.05 55.81 64.33 55.02 64.76 54.3C65.63 52.86 66.86 51.85 68.46 51.31C68.99 51.14 69.53 51 70.09 50.98C70.24 50.97 70.39 50.95 70.54 50.94C70.67 50.92 70.8 50.91 70.93 50.91C71.96 50.92 72.97 51.04 73.93 51.43C74.92 51.84 75.76 52.43 76.4 53.3C76.87 53.95 77.21 54.67 77.41 55.46C77.43 55.52 77.37 55.61 77.31 55.63C77.28 55.64 77.24 55.66 77.21 55.67C76.29 55.89 75.36 56.11 74.44 56.32C74.34 56.35 74.27 56.3 74.23 56.19C74.17 56.04 74.12 55.88 74.06 55.72C73.72 54.91 73.16 54.31 72.35 53.97C70.99 53.39 69.18 53.66 68.09 54.87C67.75 55.25 67.5 55.69 67.34 56.17C67.15 56.69 67.04 57.24 66.98 57.8C66.89 58.63 66.89 59.47 66.97 60.31C67.02 60.83 67.1 61.34 67.23 61.84C67.4 62.46 67.67 63.03 68.1 63.51C68.69 64.15 69.41 64.54 70.28 64.64C70.62 64.68 70.95 64.68 71.29 64.64C72.19 64.55 72.9 64.12 73.46 63.41C73.84 62.92 74.07 62.36 74.25 61.76C74.29 61.64 74.33 61.51 74.37 61.39C74.38 61.37 74.43 61.35 74.46 61.34C74.5 61.34 74.54 61.35 74.57 61.36C75.48 61.64 76.38 61.93 77.29 62.21C77.34 62.23 77.39 62.26 77.43 62.3C77.45 62.32 77.47 62.36 77.47 62.39C77.44 62.5 77.42 62.61 77.38 62.71C77.11 63.57 76.73 64.38 76.19 65.1C75.38 66.17 74.31 66.83 73.04 67.18C72.18 67.42 71.31 67.45 70.43 67.43C69.72 67.41 69.02 67.28 68.35 67.05C66.89 66.55 65.76 65.62 64.9 64.35C64.32 63.48 63.98 62.52 63.77 61.51C63.62 60.78 63.61 60.03 63.57 59.37ZM30.36 51.12L37.9 51.12C38.09 51.12 38.27 51.12 38.46 51.13C38.53 51.13 38.6 51.21 38.6 51.28C38.61 51.33 38.61 51.39 38.62 51.44C38.62 51.57 38.62 51.71 38.62 51.84C38.62 56.8 38.62 61.77 38.62 66.74C38.62 66.93 38.6 67.11 38.6 67.3C38.6 67.34 38.57 67.37 38.53 67.37C38.49 67.36 38.45 67.36 38.43 67.34C38.39 67.3 38.36 67.25 38.35 67.2C38.31 67.07 38.29 66.95 38.26 66.82C37.65 63.71 36.36 60.92 34.4 58.44C32.45 55.99 30.05 54.13 27.19 52.84C25.94 52.27 24.63 51.84 23.28 51.55C23.01 51.5 22.73 51.45 22.46 51.4C22.36 51.38 22.28 51.34 22.24 51.24C22.23 51.22 22.25 51.17 22.27 51.15C22.3 51.13 22.34 51.12 22.38 51.12C22.54 51.12 22.71 51.12 22.88 51.12L30.36 51.12ZM8.24 51.12C10.73 51.12 13.23 51.12 15.72 51.12C15.9 51.12 16.09 51.13 16.28 51.14C16.3 51.14 16.33 51.19 16.34 51.21C16.34 51.23 16.34 51.25 16.33 51.27C16.33 51.28 16.32 51.3 16.31 51.31C16.24 51.38 16.15 51.4 16.06 51.42C15.1 51.57 14.16 51.81 13.25 52.12C11.19 52.8 9.27 53.82 7.56 55.14C5.56 56.68 3.92 58.54 2.64 60.72C1.79 62.16 1.14 63.71 0.69 65.33C0.54 65.9 0.42 66.48 0.29 67.06C0.27 67.15 0.27 67.25 0.2 67.32C0.17 67.34 0.13 67.35 0.1 67.36C0.06 67.37 0.03 67.35 0.02 67.3C0.01 67.25 0 67.2 0 67.14C-0.01 67.03 0 66.92 0 66.81C0 61.78 0 56.76 0 51.74C0 51.59 0 51.44 0.01 51.29C0.01 51.2 0.1 51.13 0.2 51.13C0.37 51.12 0.53 51.12 0.7 51.12C3.21 51.12 5.72 51.12 8.24 51.12L8.24 51.12ZM8.25 89.75L0.71 89.75C0.52 89.75 0.34 89.74 0.15 89.74C0.09 89.73 0.01 89.65 0.01 89.58C0 89.42 0 89.25 0 89.08C0 87.33 6.1e-5 85.58 6.1e-5 83.83L6.1e-5 74.17C6.1e-5 73.98 0 73.8 0.01 73.61C0.01 73.55 0.06 73.5 0.11 73.51C0.17 73.51 0.21 73.55 0.23 73.6C0.28 73.76 0.32 73.92 0.35 74.09C0.6 75.39 0.99 76.65 1.5 77.87C2.21 79.57 3.17 81.16 4.34 82.59C6.17 84.83 8.39 86.58 10.99 87.84C12.41 88.52 13.88 89.03 15.43 89.33C15.67 89.38 15.9 89.42 16.14 89.47C16.21 89.49 16.27 89.54 16.32 89.58C16.34 89.6 16.33 89.65 16.33 89.68C16.32 89.7 16.31 89.72 16.3 89.72C16.21 89.73 16.11 89.75 16.02 89.75C15.5 89.75 14.98 89.75 14.46 89.75L8.25 89.75ZM30.42 73.44L37.9 73.44C38.09 73.44 38.28 73.45 38.46 73.46C38.53 73.46 38.6 73.53 38.6 73.6C38.61 73.66 38.62 73.71 38.62 73.77C38.62 73.9 38.62 74.03 38.62 74.16C38.62 79.13 38.62 84.1 38.62 89.07C38.62 89.25 38.6 89.44 38.59 89.62C38.59 89.67 38.56 89.69 38.51 89.68C38.48 89.67 38.44 89.66 38.42 89.64C38.32 89.52 38.3 89.37 38.27 89.22C38.19 88.71 38.07 88.2 37.93 87.7C37.19 85 35.92 82.58 34.14 80.43C32.25 78.16 29.96 76.41 27.28 75.18C26.02 74.61 24.72 74.17 23.37 73.89C23.07 73.83 22.78 73.77 22.49 73.7C22.42 73.69 22.35 73.66 22.29 73.62C22.27 73.61 22.26 73.56 22.25 73.52C22.25 73.48 22.27 73.46 22.32 73.46C22.5 73.45 22.69 73.44 22.88 73.44C25.39 73.44 27.9 73.44 30.42 73.44ZM112.69 83.16L112.69 89.13C112.69 89.3 112.69 89.47 112.68 89.64C112.68 89.7 112.6 89.77 112.53 89.77C112.49 89.78 112.45 89.78 112.42 89.79C111.52 89.79 110.63 89.79 109.74 89.79C109.68 89.79 109.62 89.78 109.57 89.76C109.53 89.74 109.48 89.69 109.47 89.64C109.46 89.51 109.46 89.38 109.45 89.25C109.45 88.53 109.45 87.8 109.45 87.08L109.45 77.36C109.45 77.21 109.46 77.06 109.45 76.91C109.45 76.57 109.42 76.54 109.06 76.54C107.87 76.54 106.68 76.54 105.48 76.54C105.32 76.54 105.15 76.54 104.98 76.54C104.76 76.53 104.7 76.47 104.69 76.22C104.69 76.15 104.69 76.08 104.69 76C104.69 75.42 104.69 74.85 104.69 74.27C104.69 74.16 104.7 74.05 104.72 73.94C104.73 73.9 104.79 73.85 104.84 73.83C104.88 73.81 104.94 73.81 105 73.81C105.13 73.81 105.26 73.81 105.39 73.81L116.73 73.81C116.88 73.81 117.03 73.81 117.18 73.81C117.33 73.81 117.4 73.89 117.41 74.06C117.41 74.08 117.41 74.1 117.41 74.12C117.41 74.82 117.41 75.53 117.41 76.24C117.41 76.29 117.4 76.35 117.39 76.4C117.39 76.43 117.37 76.46 117.35 76.48C117.33 76.5 117.31 76.51 117.28 76.52C117.13 76.53 116.98 76.54 116.84 76.54C115.68 76.54 114.53 76.54 113.37 76.54C113.2 76.54 113.04 76.55 112.87 76.55C112.77 76.56 112.71 76.63 112.7 76.74C112.7 76.9 112.69 77.07 112.69 77.24C112.69 79.21 112.69 81.19 112.69 83.16ZM48.09 81.8L48.09 74.48C48.09 74.32 48.09 74.15 48.1 73.98C48.1 73.89 48.18 73.82 48.28 73.82C48.41 73.81 48.54 73.81 48.67 73.81L58.28 73.81C58.96 73.81 58.92 73.77 58.92 74.44C58.92 75 58.92 75.56 58.92 76.12C58.92 76.21 58.91 76.3 58.89 76.39C58.88 76.42 58.85 76.45 58.82 76.47C58.76 76.49 58.71 76.5 58.65 76.5C58.49 76.51 58.32 76.5 58.15 76.5L52.06 76.5C51.89 76.5 51.73 76.5 51.56 76.51C51.4 76.51 51.33 76.59 51.32 76.75C51.32 76.92 51.32 77.09 51.32 77.25C51.32 81.2 51.32 85.15 51.32 89.09C51.32 89.86 51.39 89.79 50.63 89.79C49.93 89.79 49.22 89.79 48.51 89.79C48.42 89.79 48.33 89.78 48.23 89.77C48.17 89.77 48.1 89.69 48.1 89.62C48.09 89.53 48.09 89.44 48.09 89.34C48.08 89.03 48.09 88.71 48.09 88.39L48.09 81.8ZM93.53 69.85L93.81 69.85C94.24 69.86 94.25 69.82 94.37 70.28C94.53 70.88 94.94 71.21 95.54 71.34C95.96 71.44 96.39 71.44 96.81 71.35C97.39 71.23 97.79 70.91 97.98 70.35C98 70.28 98.02 70.21 98.04 70.14C98.12 69.87 98.14 69.86 98.37 69.86C98.72 69.85 99.08 69.86 99.43 69.86C99.51 69.87 99.58 69.93 99.57 70C99.49 70.69 99.28 71.34 98.82 71.88C98.41 72.38 97.89 72.73 97.25 72.89C96.56 73.07 95.86 73.07 95.16 72.9C94.28 72.67 93.63 72.16 93.2 71.36C92.98 70.95 92.84 70.51 92.81 70.04C92.8 69.94 92.87 69.87 92.98 69.86C93.03 69.86 93.09 69.85 93.14 69.85C93.27 69.85 93.4 69.85 93.53 69.85L93.53 69.85ZM82.87 96.77C83.13 96.77 83.39 96.77 83.66 96.77C83.75 96.77 83.82 96.86 83.83 96.96C83.86 97.33 83.79 97.7 83.64 98.04C83.37 98.63 82.9 98.97 82.26 99.05C82.08 99.08 81.89 99.08 81.71 99.07C80.85 99.02 80.29 98.56 79.98 97.78C79.74 97.15 79.75 96.5 80 95.87C80.4 94.84 81.35 94.49 82.24 94.61C82.37 94.62 82.5 94.65 82.62 94.69C83.21 94.9 83.59 95.3 83.72 95.92C83.73 95.96 83.68 96.03 83.62 96.03C83.55 96.04 83.47 96.04 83.4 96.04C83.28 96.05 83.18 96.01 83.13 95.89C83.12 95.88 83.11 95.86 83.1 95.84C82.77 94.93 81.27 94.84 80.69 95.82C80.27 96.53 80.31 97.25 80.74 97.94C81.07 98.47 81.77 98.64 82.25 98.52C82.76 98.39 83.07 98.1 83.2 97.6C83.28 97.29 83.25 97.24 82.93 97.24C82.67 97.24 82.41 97.24 82.15 97.23C82.01 97.23 81.97 97.15 81.97 97C81.97 96.85 82.03 96.78 82.15 96.77C82.39 96.77 82.63 96.77 82.87 96.77L82.87 96.77ZM51.26 96.78C51.5 96.78 51.74 96.77 51.98 96.78C52.05 96.78 52.13 96.85 52.14 96.91C52.18 97.3 52.15 97.69 51.98 98.05C51.7 98.63 51.24 98.98 50.6 99.05C50.38 99.08 50.15 99.08 49.93 99.06C49.36 99.01 48.91 98.74 48.58 98.27C48.36 97.96 48.23 97.61 48.19 97.24C48.16 96.92 48.15 96.6 48.22 96.29C48.34 95.68 48.64 95.18 49.19 94.87C49.81 94.52 50.47 94.48 51.13 94.76C51.64 94.98 51.95 95.38 52.06 95.93C52.07 95.97 52.05 96 52.01 96.01C51.88 96.06 51.75 96.05 51.63 96.03C51.57 96.02 51.53 95.99 51.49 95.94C51.44 95.87 51.41 95.77 51.37 95.69C51.18 95.39 50.91 95.21 50.56 95.15C49.86 95.04 49.26 95.32 48.95 95.97C48.68 96.54 48.68 97.13 48.94 97.7C49.28 98.46 50.09 98.75 50.86 98.43C51.27 98.27 51.49 97.93 51.56 97.49C51.6 97.29 51.52 97.25 51.36 97.25C51.06 97.24 50.77 97.24 50.47 97.23C50.4 97.23 50.34 97.16 50.33 97.08C50.32 97.05 50.32 97.01 50.32 96.97C50.32 96.87 50.39 96.78 50.47 96.78C50.73 96.78 50.99 96.78 51.25 96.78C51.26 96.78 51.26 96.78 51.26 96.78ZM75.04 99.08C74.76 99.07 74.48 99.06 74.22 98.95C73.6 98.7 73.24 98.22 73.05 97.61C72.85 97 72.9 96.4 73.14 95.81C73.55 94.85 74.46 94.49 75.31 94.61C75.48 94.63 75.64 94.67 75.8 94.73C76.34 94.94 76.67 95.34 76.82 95.9C76.83 95.94 76.83 95.97 76.81 96.01C76.8 96.04 76.78 96.08 76.75 96.09C76.63 96.14 76.5 96.13 76.37 96.1C76.33 96.09 76.3 96.06 76.28 96.03C76.25 95.97 76.21 95.9 76.18 95.83C75.92 95.26 75.33 95.07 74.79 95.16C74.36 95.23 74.03 95.44 73.81 95.82C73.67 96.05 73.59 96.29 73.56 96.56C73.54 96.78 73.55 97 73.58 97.23C73.62 97.54 73.75 97.84 73.96 98.08C74.26 98.43 74.66 98.56 75.11 98.54C75.35 98.53 75.59 98.47 75.79 98.33C75.94 98.22 76.07 98.08 76.16 97.91C76.2 97.83 76.23 97.74 76.28 97.66C76.3 97.64 76.32 97.62 76.34 97.61C76.36 97.6 76.39 97.59 76.41 97.58C76.52 97.58 76.63 97.59 76.74 97.59C76.79 97.59 76.83 97.67 76.83 97.72C76.79 97.94 76.71 98.15 76.57 98.33C76.26 98.77 75.85 99.03 75.32 99.06C75.22 99.07 75.13 99.08 75.04 99.08ZM68.93 96.86C68.93 96.29 68.93 95.71 68.93 95.13C68.93 95.02 68.94 94.91 68.96 94.8C68.96 94.75 68.99 94.7 69.06 94.69C69.12 94.68 69.17 94.66 69.22 94.66C69.97 94.66 70.71 94.66 71.45 94.67C71.51 94.67 71.56 94.68 71.62 94.69C71.65 94.71 71.68 94.74 71.69 94.77C71.7 94.84 71.71 94.91 71.7 94.99C71.7 95.07 71.64 95.13 71.57 95.14C71.46 95.15 71.35 95.16 71.23 95.16C70.81 95.16 70.38 95.16 69.95 95.16C69.86 95.16 69.77 95.16 69.68 95.18C69.63 95.19 69.57 95.22 69.56 95.29C69.56 95.43 69.54 95.58 69.54 95.73C69.54 95.95 69.55 96.17 69.56 96.4C69.56 96.47 69.63 96.54 69.7 96.54C70 96.55 70.29 96.55 70.59 96.56C70.83 96.56 71.07 96.57 71.31 96.57C71.38 96.58 71.44 96.64 71.45 96.72C71.45 96.78 71.45 96.84 71.45 96.89C71.44 96.97 71.38 97.04 71.31 97.04C71.18 97.05 71.05 97.06 70.92 97.06C70.57 97.06 70.21 97.06 69.86 97.06C69.79 97.06 69.72 97.07 69.65 97.09C69.62 97.1 69.58 97.14 69.57 97.17C69.51 97.57 69.53 97.98 69.57 98.39C69.57 98.43 69.62 98.48 69.68 98.49C69.81 98.49 69.94 98.5 70.07 98.5C70.5 98.51 70.93 98.5 71.36 98.51C71.45 98.51 71.54 98.51 71.63 98.53C71.67 98.53 71.7 98.56 71.72 98.58C71.78 98.65 71.79 98.89 71.74 98.96C71.71 98.99 71.68 99.01 71.65 99.02C71.59 99.03 71.54 99.03 71.48 99.03C70.74 99.03 69.99 99.03 69.25 99.03C69.19 99.03 69.14 99.03 69.08 99.02C69.02 99.01 68.95 98.94 68.95 98.87C68.94 98.76 68.93 98.64 68.93 98.53C68.93 97.98 68.93 97.42 68.93 96.86ZM98.06 96.24C98.06 96.65 98.06 97.06 98.06 97.47C98.06 97.69 98.02 97.91 97.95 98.12C97.75 98.64 97.37 98.93 96.84 99.04C96.6 99.09 96.36 99.09 96.12 99.07C95.32 98.99 94.79 98.46 94.71 97.66C94.71 97.61 94.71 97.55 94.71 97.49C94.71 96.64 94.71 95.78 94.71 94.93C94.71 94.87 94.71 94.82 94.73 94.77C94.74 94.75 94.75 94.74 94.76 94.72C94.77 94.71 94.79 94.7 94.81 94.69C94.93 94.65 95.06 94.66 95.19 94.69C95.22 94.7 95.26 94.74 95.26 94.77C95.28 94.88 95.29 94.99 95.29 95.1C95.29 95.82 95.29 96.55 95.29 97.27C95.29 97.48 95.3 97.68 95.37 97.88C95.43 98.05 95.54 98.21 95.69 98.32C95.79 98.41 95.91 98.46 96.04 98.49C96.24 98.52 96.45 98.52 96.65 98.5C97 98.46 97.23 98.26 97.37 97.95C97.45 97.76 97.48 97.56 97.48 97.35C97.47 96.67 97.47 95.98 97.48 95.29C97.48 95.14 97.48 94.99 97.48 94.85C97.49 94.74 97.56 94.68 97.66 94.67C97.73 94.67 97.81 94.67 97.88 94.67C97.98 94.68 98.05 94.75 98.05 94.85C98.06 95.31 98.05 95.78 98.05 96.24L98.06 96.24ZM65.77 97.08C65.77 96.58 65.78 96.07 65.77 95.57C65.77 95.48 65.77 95.39 65.75 95.3C65.74 95.25 65.69 95.19 65.65 95.18C65.56 95.16 65.46 95.16 65.37 95.16C65.13 95.15 64.89 95.16 64.65 95.15C64.49 95.15 64.43 95.07 64.43 94.9C64.43 94.88 64.43 94.86 64.43 94.84C64.44 94.75 64.49 94.69 64.56 94.68C64.61 94.67 64.67 94.67 64.72 94.66C65.63 94.66 66.55 94.66 67.46 94.66C67.51 94.66 67.57 94.67 67.62 94.68C67.65 94.69 67.7 94.71 67.71 94.74C67.77 94.85 67.76 94.96 67.72 95.06C67.71 95.08 67.7 95.09 67.68 95.1C67.67 95.11 67.65 95.12 67.63 95.13C67.54 95.14 67.45 95.15 67.36 95.16C67.1 95.16 66.84 95.16 66.58 95.17C66.49 95.17 66.41 95.26 66.4 95.35C66.4 95.5 66.4 95.65 66.4 95.8C66.4 96.69 66.39 97.58 66.39 98.48C66.39 98.61 66.39 98.74 66.38 98.87C66.38 98.94 66.31 99.02 66.25 99.02C66.16 99.03 66.06 99.03 65.97 99.03C65.87 99.03 65.79 98.96 65.79 98.86C65.78 98.75 65.78 98.64 65.78 98.53C65.77 98.05 65.77 97.56 65.77 97.08ZM63.22 96.91C63.22 97.46 63.22 98.02 63.22 98.58C63.22 98.69 63.22 98.8 63.2 98.91C63.19 98.95 63.13 99 63.09 99.01C63 99.03 62.91 99.03 62.81 99.03C62.72 99.03 62.64 98.95 62.64 98.85C62.63 98.76 62.63 98.67 62.63 98.57L62.63 95.12C62.63 95.01 62.63 94.9 62.65 94.79C62.65 94.76 62.67 94.73 62.69 94.71C62.71 94.7 62.73 94.68 62.76 94.68C62.84 94.68 62.91 94.67 62.98 94.67C63.16 94.67 63.22 94.73 63.22 94.9C63.22 95.57 63.22 96.24 63.22 96.91L63.22 96.91ZM87.93 89.68C87.89 89.54 87.85 89.4 87.79 89.26C87.1 87.53 86.41 85.81 85.72 84.08C84.58 81.23 83.44 78.39 82.3 75.54C82.1 75.04 81.9 74.54 81.7 74.04C81.64 73.88 81.54 73.8 81.36 73.81C80.39 73.81 79.43 73.81 78.46 73.81C78.42 73.81 78.38 73.81 78.35 73.81C78.27 73.82 78.2 73.85 78.17 73.92C78.12 74.01 78.09 74.09 78.05 74.18C77.61 75.32 77.16 76.46 76.71 77.61L73.27 86.44C72.9 87.4 72.53 88.35 72.16 89.3C72.11 89.42 72.08 89.55 72.05 89.67C72.05 89.7 72.08 89.75 72.1 89.75C72.19 89.77 72.28 89.78 72.38 89.79C73.27 89.79 74.16 89.79 75.06 89.79C75.13 89.79 75.21 89.78 75.28 89.77C75.36 89.76 75.42 89.73 75.45 89.65C75.48 89.58 75.51 89.51 75.53 89.44L76.48 86.82C76.55 86.65 76.62 86.47 76.69 86.3C76.72 86.23 76.79 86.19 76.87 86.19C76.96 86.19 77.05 86.18 77.15 86.18L82.68 86.18C82.77 86.18 82.86 86.18 82.96 86.19C82.99 86.19 83.03 86.2 83.06 86.22C83.09 86.24 83.12 86.27 83.13 86.31C83.18 86.41 83.23 86.51 83.27 86.61C83.62 87.53 83.97 88.45 84.32 89.37C84.36 89.48 84.4 89.58 84.46 89.68C84.48 89.72 84.54 89.76 84.59 89.77C84.68 89.79 84.77 89.79 84.87 89.79C85.31 89.79 85.76 89.79 86.21 89.79C86.67 89.79 87.14 89.79 87.6 89.79C87.69 89.79 87.79 89.77 87.88 89.76C87.92 89.76 87.95 89.73 87.93 89.68ZM81.88 83.47C81.75 83.48 81.62 83.49 81.49 83.49C80.93 83.49 80.37 83.49 79.81 83.49L79.81 83.47L77.86 83.47C77.82 83.47 77.76 83.4 77.77 83.36C77.79 83.29 77.81 83.21 77.83 83.14C77.95 82.81 78.07 82.48 78.19 82.15C78.7 80.75 79.21 79.36 79.73 77.96C79.75 77.89 79.79 77.83 79.83 77.77C79.83 77.76 79.86 77.75 79.88 77.75C79.88 77.75 79.89 77.75 79.9 77.75C79.91 77.76 79.91 77.76 79.92 77.77C79.96 77.85 80 77.93 80.03 78.02C80.66 79.71 81.29 81.4 81.91 83.09C81.94 83.17 81.96 83.27 81.98 83.36C81.98 83.39 81.92 83.47 81.88 83.47ZM72.7 77.27C72.46 76.21 71.89 75.36 71.02 74.72C70.5 74.33 69.88 74.08 69.24 73.99C68.42 73.87 67.6 73.83 66.79 73.82C64.91 73.79 63.03 73.81 61.15 73.81C61.04 73.81 60.93 73.81 60.81 73.81C60.71 73.82 60.63 73.89 60.63 73.98C60.62 74.15 60.62 74.32 60.62 74.48C60.62 76.92 60.62 79.36 60.62 81.8L60.62 83.14C60.62 85.16 60.62 87.19 60.62 89.22C60.62 89.37 60.63 89.52 60.64 89.66C60.65 89.69 60.66 89.72 60.68 89.74C60.7 89.75 60.73 89.77 60.76 89.77C60.83 89.77 60.9 89.79 60.98 89.79C61.82 89.79 62.65 89.79 63.49 89.79C63.56 89.79 63.64 89.78 63.71 89.77C63.78 89.76 63.84 89.69 63.84 89.62C63.85 89.45 63.86 89.28 63.86 89.11C63.86 87.57 63.86 86.03 63.86 84.48C63.86 84.31 63.86 84.15 63.86 83.98C63.87 83.86 63.95 83.78 64.08 83.78C64.19 83.77 64.3 83.77 64.42 83.77C64.99 83.77 65.57 83.78 66.15 83.77C67.04 83.75 67.93 83.75 68.82 83.63C69.65 83.52 70.4 83.22 71.07 82.72C71.92 82.08 72.46 81.23 72.7 80.2C72.94 79.23 72.93 78.25 72.7 77.27ZM69.51 79.09C69.38 80.13 68.63 80.77 67.69 80.93C67.28 81 66.87 81.04 66.46 81.04C65.7 81.04 64.94 81.05 64.17 81.05C64.12 81.05 64.06 81.05 64.01 81.04C63.94 81.04 63.87 80.97 63.87 80.89C63.86 80.71 63.86 80.52 63.86 80.34C63.86 79.82 63.86 79.29 63.86 78.77C63.86 78.16 63.86 77.55 63.86 76.93C63.86 76.84 63.87 76.75 63.88 76.66C63.89 76.63 63.93 76.59 63.96 76.58C64.01 76.56 64.06 76.55 64.12 76.55C65.18 76.56 66.24 76.57 67.3 76.59C67.6 76.59 67.89 76.67 68.17 76.77C69.1 77.12 69.66 78.02 69.51 79.09L69.51 79.09ZM93.37 96.21C93.12 95.32 92.57 94.75 91.64 94.61C90.94 94.51 90.31 94.7 89.82 95.23C89.39 95.69 89.21 96.24 89.21 96.95C89.21 97.34 89.34 97.79 89.6 98.18C89.95 98.71 90.44 99.02 91.08 99.07C91.24 99.08 91.41 99.08 91.58 99.07C92.21 99.02 92.71 98.72 93.05 98.19C93.44 97.58 93.56 96.92 93.37 96.21ZM92.84 96.9C92.84 97.25 92.73 97.62 92.5 97.95C92.02 98.64 91.01 98.71 90.43 98.24C90.3 98.13 90.18 98.01 90.1 97.86C89.7 97.17 89.7 96.48 90.11 95.8C90.64 94.94 91.94 94.91 92.51 95.75C92.75 96.1 92.84 96.47 92.84 96.9ZM56.37 98.81C56.11 98.36 55.85 97.91 55.59 97.46C55.45 97.22 55.41 97.18 55.68 97.03C55.76 96.99 55.84 96.94 55.91 96.87C56.29 96.51 56.44 96.08 56.29 95.56C56.14 95.07 55.8 94.76 55.3 94.69C54.71 94.62 54.12 94.65 53.52 94.68C53.46 94.69 53.42 94.75 53.41 94.79C53.4 94.9 53.39 95.02 53.39 95.13C53.39 95.68 53.39 96.24 53.39 96.8C53.39 97.39 53.39 97.99 53.39 98.58C53.39 98.69 53.41 98.8 53.42 98.91C53.43 98.93 53.44 98.95 53.45 98.96C53.46 98.97 53.47 98.99 53.49 98.99C53.63 99.06 53.78 99.05 53.92 98.99C53.95 98.98 53.97 98.94 53.98 98.9C53.99 98.81 53.99 98.72 53.99 98.63C54 98.25 53.99 97.88 54 97.51C54 97.44 54.01 97.36 54.03 97.29C54.04 97.26 54.08 97.22 54.1 97.22C54.23 97.2 54.36 97.19 54.49 97.18C54.68 97.17 54.81 97.24 54.9 97.41C55.15 97.86 55.42 98.31 55.68 98.76C55.71 98.82 55.76 98.89 55.8 98.95C55.82 98.98 55.85 99 55.89 99.01C56.05 99.05 56.22 99.05 56.38 99C56.39 99 56.39 99 56.4 98.99C56.4 98.98 56.41 98.98 56.41 98.97C56.4 98.91 56.4 98.86 56.37 98.81ZM54.1 96.67C54.07 96.66 54.03 96.62 54.03 96.6C54.01 96.51 54 96.41 54 96.32C53.99 96.17 53.99 96.03 53.99 95.88L54 95.88C54 95.7 54 95.51 54.01 95.33C54.01 95.26 54.09 95.18 54.14 95.17C54.46 95.15 54.77 95.13 55.08 95.19C55.52 95.26 55.74 95.55 55.72 96.01C55.72 96.17 55.66 96.32 55.55 96.44C55.45 96.56 55.31 96.64 55.15 96.66C54.81 96.72 54.45 96.7 54.1 96.67ZM88 98.76C87.75 98.33 87.5 97.89 87.25 97.46C87.09 97.2 87.1 97.2 87.38 97.01C87.5 96.92 87.62 96.83 87.71 96.72C88.01 96.36 88.08 95.96 87.93 95.52C87.78 95.06 87.45 94.76 86.97 94.7C86.38 94.62 85.79 94.65 85.19 94.68C85.16 94.69 85.1 94.75 85.09 94.79C85.07 94.9 85.07 95.02 85.07 95.13C85.07 95.68 85.07 96.24 85.07 96.8C85.07 97.39 85.07 97.99 85.07 98.58C85.07 98.69 85.07 98.8 85.09 98.91C85.09 98.94 85.11 98.96 85.13 98.98C85.15 99 85.17 99.01 85.2 99.02C85.29 99.02 85.39 99.03 85.48 99.02C85.56 99.02 85.63 98.96 85.63 98.89C85.64 98.78 85.65 98.67 85.65 98.56C85.65 98.19 85.65 97.82 85.65 97.44C85.65 97.28 85.68 97.19 85.93 97.18C86.04 97.18 86.15 97.19 86.26 97.19C86.38 97.19 86.47 97.26 86.53 97.36C86.75 97.74 86.97 98.13 87.2 98.52C87.28 98.66 87.36 98.81 87.46 98.94C87.48 98.98 87.55 99.01 87.6 99.02C87.67 99.04 87.74 99.03 87.82 99.03C88.1 99.03 88.13 98.98 88 98.76ZM85.75 96.66C85.72 96.66 85.69 96.62 85.67 96.59C85.66 96.56 85.65 96.52 85.65 96.48C85.65 96.3 85.65 96.11 85.65 95.92L85.66 95.92C85.66 95.72 85.66 95.52 85.66 95.31C85.66 95.24 85.74 95.17 85.81 95.17C86.08 95.17 86.36 95.16 86.64 95.17C86.73 95.17 86.82 95.2 86.91 95.23C87.21 95.32 87.42 95.64 87.41 95.96C87.4 96.29 87.12 96.63 86.8 96.67C86.45 96.71 86.1 96.71 85.75 96.66ZM61.38 98.88C61.35 98.79 61.32 98.7 61.29 98.62C60.98 97.72 60.66 96.83 60.34 95.94C60.21 95.57 60.08 95.2 59.95 94.83C59.92 94.73 59.85 94.68 59.75 94.67C59.6 94.67 59.45 94.67 59.3 94.67C59.2 94.67 59.13 94.74 59.09 94.83C59.07 94.88 59.06 94.93 59.04 94.99C58.6 96.21 58.17 97.44 57.73 98.66C57.7 98.75 57.69 98.84 57.67 98.94C57.67 98.94 57.67 98.95 57.67 98.96C57.67 98.97 57.68 98.98 57.68 98.99C57.69 99 57.7 99 57.71 99.01C57.71 99.01 57.72 99.01 57.73 99.01C57.84 99.02 57.95 99.03 58.06 99.03C58.16 99.03 58.24 98.99 58.28 98.89C58.36 98.66 58.44 98.43 58.52 98.21C58.57 98.07 58.67 98 58.82 98C59.1 98.01 59.38 98 59.66 98C59.85 98 60.03 98 60.22 98C60.36 98 60.48 98.04 60.51 98.2C60.52 98.22 60.52 98.23 60.53 98.25C60.61 98.46 60.68 98.67 60.76 98.88C60.8 98.98 60.87 99.02 60.97 99.03C61.01 99.03 61.05 99.03 61.19 99.03L61.25 99.03C61.34 99.02 61.4 98.95 61.38 98.88ZM60 97.46C59.94 97.46 59.88 97.46 59.83 97.46L59.33 97.46C58.75 97.47 58.78 97.46 58.95 96.96C59.1 96.51 59.27 96.06 59.43 95.6C59.44 95.57 59.48 95.55 59.51 95.53C59.55 95.5 59.57 95.51 59.59 95.56C59.79 96.12 59.99 96.68 60.18 97.23C60.24 97.4 60.19 97.46 60 97.46ZM61.19 99.03L61.19 99.03C61.17 99.03 61.16 99.03 61.19 99.03ZM102.14 95.09C101.91 94.83 101.61 94.68 101.26 94.67C100.73 94.67 100.21 94.67 99.69 94.67C99.65 94.67 99.62 94.67 99.58 94.69C99.55 94.7 99.51 94.73 99.5 94.76C99.49 94.85 99.48 94.95 99.47 95.04C99.47 95.63 99.47 96.23 99.47 96.82C99.47 97.4 99.47 97.98 99.47 98.56C99.47 98.67 99.48 98.78 99.49 98.89C99.5 98.96 99.57 99.02 99.64 99.02C99.74 99.03 99.83 99.02 99.92 99.02C99.99 99.02 100.03 98.97 100.04 98.92C100.06 98.85 100.06 98.77 100.06 98.7C100.07 98.42 100.06 98.14 100.07 97.86C100.07 97.79 100.08 97.71 100.1 97.64C100.11 97.61 100.14 97.57 100.17 97.57C100.32 97.55 100.47 97.54 100.62 97.54C100.88 97.53 101.14 97.54 101.39 97.48C101.93 97.37 102.3 97.06 102.47 96.54C102.63 96 102.53 95.5 102.14 95.09ZM101.95 96.24C101.86 96.68 101.55 96.97 101.11 97C100.81 97.02 100.51 97 100.22 97C100.15 97 100.08 96.92 100.08 96.85C100.07 96.59 100.08 96.33 100.08 96.07L100.06 96.07L100.06 95.91C100.07 95.04 99.96 95.16 100.85 95.16C101 95.16 101.15 95.18 101.3 95.21C101.79 95.31 102.02 95.86 101.95 96.24Z" fill="#778187" fill-opacity="1.000000" fill-rule="nonzero"/>
	</g>
</svg>
