<svg width="146.330002" height="150.000000" viewBox="0 0 146.33 150" fill="none" xmlns="http://www.w3.org/2000/svg" xmlns:xlink="http://www.w3.org/1999/xlink">
	<desc>
			Created with Pixso.
	</desc>
	<defs>
		<clipPath id="clip44_790">
			<rect id="ibs" rx="0.000000" width="145.330002" height="149.000000" transform="translate(0.500000 0.500000)" fill="white" fill-opacity="0"/>
		</clipPath>
	</defs>
	<rect id="ibs" rx="0.000000" width="145.330002" height="149.000000" transform="translate(0.500000 0.500000)" fill="#FFFFFF" fill-opacity="0"/>
	<g clip-path="url(#clip44_790)">
		<path id="Vector" d="M0 46.3L0 60.07L4.87 60.07L4.87 89.92L0 89.92L0 103.69L31.7 103.69L31.7 89.91L26.82 89.91L26.82 60.07L31.7 60.07L31.7 46.3L0 46.3ZM75.42 46.3L34.14 46.3L34.14 60.07L39.02 60.07L39.02 89.92L34.14 89.92L34.14 103.69L77.42 103.69C86.83 103.69 92.67 96.47 92.67 86.96C92.67 80.32 89.19 74.91 83.18 72.7C90.06 68.93 90.23 63.35 90.23 60.4C90.23 50.15 82.74 46.21 75.42 46.3ZM58.53 60.07L65.67 60.07C68.02 60.07 69.93 61.87 69.93 64.09C69.93 66.3 68.02 68.1 65.67 68.1L58.53 68.1L58.53 60.07ZM58.53 81.88L66.45 81.88C68.81 81.88 70.72 83.68 70.72 85.9C70.72 88.1 68.81 89.91 66.45 89.91L58.53 89.91L58.53 81.88ZM143.89 46.3L113.4 46.3C99.12 46.3 92.67 54.82 92.67 63.76C92.67 74.25 99.9 81.88 110.61 81.88L122.55 81.88C124.9 81.88 126.81 83.68 126.81 85.9C126.81 88.11 124.9 89.91 122.55 89.91L114.62 89.91L114.62 85.32L95.11 85.32L95.11 103.68L127.08 103.68C138.66 103.68 146.33 97.62 146.33 86.63C146.33 67.69 129.34 68.1 124.55 68.1L118.45 68.1C116.1 68.1 114.19 66.3 114.19 64.09C114.19 61.87 116.1 60.07 118.45 60.07L124.37 60.07L124.37 64.66L143.89 64.66L143.89 46.3Z" fill="#778187" fill-opacity="1.000000" fill-rule="evenodd"/>
	</g>
</svg>
