<svg width="76.670044" height="78.593140" viewBox="0 0 76.67 78.5931" fill="none" xmlns="http://www.w3.org/2000/svg" xmlns:xlink="http://www.w3.org/1999/xlink">
	<desc>
			Created with Pixso.
	</desc>
	<defs>
		<clipPath id="clip44_482">
			<rect id="ibs" rx="0.000000" width="76.146088" height="78.068993" transform="translate(0.261977 0.261977)" fill="white" fill-opacity="0"/>
		</clipPath>
	</defs>
	<rect id="ibs" rx="0.000000" width="76.146088" height="78.068993" transform="translate(0.261977 0.261977)" fill="#FFFFFF" fill-opacity="0"/>
	<g clip-path="url(#clip44_482)">
		<path id="Vector" d="M0 24.26L0 31.47L2.55 31.47L2.55 47.11L0 47.11L0 54.32L16.61 54.32L16.61 47.11L14.05 47.11L14.05 31.47L16.61 31.47L16.61 24.26L0 24.26ZM39.52 24.26L17.89 24.26L17.89 31.47L20.44 31.47L20.44 47.11L17.89 47.11L17.89 54.32L40.56 54.32C45.49 54.32 48.55 50.54 48.55 45.56C48.55 42.08 46.73 39.24 43.58 38.09C47.18 36.11 47.27 33.19 47.27 31.64C47.28 26.27 43.35 24.21 39.52 24.26ZM30.66 31.47L34.4 31.47C35.64 31.47 36.64 32.41 36.64 33.58C36.64 34.74 35.64 35.68 34.4 35.68L30.66 35.68L30.66 31.47ZM30.66 42.9L34.82 42.9C36.05 42.9 37.05 43.84 37.05 45C37.05 46.16 36.05 47.11 34.82 47.11L30.66 47.11L30.66 42.9ZM75.39 24.26L59.42 24.26C51.93 24.26 48.55 28.72 48.55 33.4C48.55 38.9 52.34 42.9 57.95 42.9L64.21 42.9C65.44 42.9 66.44 43.84 66.44 45C66.44 46.16 65.44 47.11 64.21 47.11L60.05 47.11L60.05 44.7L49.83 44.7L49.83 54.32L66.58 54.32C72.65 54.32 76.67 51.15 76.67 45.39C76.67 35.47 67.77 35.68 65.26 35.68L62.06 35.68C60.83 35.68 59.83 34.74 59.83 33.58C59.83 32.41 60.83 31.47 62.06 31.47L65.16 31.47L65.16 33.88L75.39 33.88L75.39 24.26Z" fill="#778187" fill-opacity="1.000000" fill-rule="evenodd"/>
	</g>
</svg>
