<svg width="146.330017" height="150.000000" viewBox="0 0 146.33 150" fill="none" xmlns="http://www.w3.org/2000/svg" xmlns:xlink="http://www.w3.org/1999/xlink">
	<desc>
			Created with Pixso.
	</desc>
	<defs>
		<clipPath id="clip44_694">
			<rect id="integration" rx="0.000000" width="145.330002" height="149.000000" transform="translate(0.500000 0.500000)" fill="white" fill-opacity="0"/>
		</clipPath>
	</defs>
	<rect id="integration" rx="0.000000" width="145.330002" height="149.000000" transform="translate(0.500000 0.500000)" fill="#FFFFFF" fill-opacity="0"/>
	<g clip-path="url(#clip44_694)">
		<path id="Vector" d="M53.91 68.45L53.91 82.04L51.01 82.04L51.01 73.1L45.24 82.04L42.35 82.04L42.35 68.45L45.24 68.45L45.24 77.41L51.01 68.45L53.91 68.45Z" fill="#778187" fill-opacity="1.000000" fill-rule="nonzero"/>
		<path id="Vector" d="M65.03 72.06L65.03 82.04L62.21 82.04L62.21 78.14L58.68 78.14L58.68 82.04L55.86 82.04L55.86 72.06L58.68 72.06L58.68 75.71L62.21 75.71L62.21 72.06L65.03 72.06Z" fill="#778187" fill-opacity="1.000000" fill-rule="nonzero"/>
		<path id="Vector" d="M74.85 74.49L71.86 74.49L71.86 82.04L69.04 82.04L69.04 74.49L66.05 74.49L66.05 72.06L74.85 72.06L74.85 74.49Z" fill="#778187" fill-opacity="1.000000" fill-rule="nonzero"/>
		<path id="Vector" d="M78.19 75.88L82.17 75.88C82.09 74.74 81.36 74.03 80.24 74.03C79.12 74.03 78.35 74.72 78.19 75.88ZM78.17 77.85L78.17 77.89C78.17 79.1 79.08 80.05 80.43 80.05C81.4 80.05 81.96 79.57 82.09 79.18L84.81 79.18C84.54 80.57 83.21 82.27 80.37 82.27C77.34 82.27 75.34 80.34 75.34 77.1C75.34 73.84 77.32 71.83 80.22 71.83C83.07 71.83 84.91 73.8 84.91 76.88L84.91 77.85L78.17 77.85Z" fill="#778187" fill-opacity="1.000000" fill-rule="nonzero"/>
		<path id="Vector" d="M93.19 74.49L88.92 74.49L88.92 82.04L86.11 82.04L86.11 72.06L93.19 72.06L93.19 74.49Z" fill="#778187" fill-opacity="1.000000" fill-rule="nonzero"/>
		<path id="Vector" d="M101.39 77.06C101.39 75.36 100.54 74.26 99.23 74.26C97.92 74.26 97.05 75.34 97.05 77.02L97.05 77.1C97.05 78.78 97.92 79.84 99.23 79.84C100.54 79.84 101.39 78.76 101.39 77.06ZM104.23 77.06C104.23 80.34 102.28 82.27 99.83 82.27C98.55 82.27 97.61 81.77 97.11 81.07L97.11 85.72L94.29 85.72L94.29 72.06L96.99 72.06L96.99 73.22C97.49 72.47 98.44 71.83 99.91 71.83C102.28 71.83 104.23 73.72 104.23 77.06Z" fill="#778187" fill-opacity="1.000000" fill-rule="nonzero"/>
		<path id="Vector" d="M111.14 78.27L111.14 77.83L109.17 77.83C108.3 77.83 107.69 78.25 107.69 78.97C107.69 79.66 108.25 80.09 109.11 80.09C110.19 80.09 111.14 79.43 111.14 78.27ZM113.9 75.51L113.9 82.04L111.29 82.04L111.29 80.96C110.68 81.77 109.63 82.27 108.34 82.27C106.41 82.27 104.87 81.11 104.87 79.1C104.87 77.06 106.41 75.88 108.96 75.88L111.14 75.88L111.14 75.42C111.14 74.49 110.44 74.01 109.5 74.01C108.53 74.01 108.03 74.45 107.88 74.97L105.25 74.97C105.52 73.26 107.01 71.83 109.61 71.83C112.18 71.83 113.9 73.08 113.9 75.51Z" fill="#778187" fill-opacity="1.000000" fill-rule="nonzero"/>
		<path id="Vector" d="M126.04 79.61L126.04 84.51L123.34 84.51L123.34 82.04L115.54 82.04L115.54 72.06L118.36 72.06L118.36 79.61L121.81 79.61L121.81 72.06L124.63 72.06L124.63 79.61L126.04 79.61Z" fill="#778187" fill-opacity="1.000000" fill-rule="nonzero"/>
		<path id="Vector" d="M136.35 72.06L136.35 82.04L133.59 82.04L133.59 76.21L129.73 82.04L127.07 82.04L127.07 72.06L129.82 72.06L129.82 77.85L133.68 72.06L136.35 72.06Z" fill="#778187" fill-opacity="1.000000" fill-rule="nonzero"/>
		<path id="Vector" d="M143.43 76.85L143.43 74.26L141.98 74.26C141.1 74.26 140.56 74.8 140.56 75.53C140.56 76.29 141.08 76.85 141.98 76.85L143.43 76.85ZM146.21 72.06L146.21 82.04L143.43 82.04L143.43 78.99L142.25 78.99L140.28 82.04L137.18 82.04L139.51 78.47C138.39 77.85 137.78 76.77 137.78 75.51C137.78 73.58 139.05 72.06 141.6 72.06L146.21 72.06Z" fill="#778187" fill-opacity="1.000000" fill-rule="nonzero"/>
		<path id="Vector" d="M28.02 86.69L28.02 63.39L32.74 63.39L32.74 86.69L28.02 86.69Z" fill="#778187" fill-opacity="1.000000" fill-rule="nonzero"/>
		<path id="Vector" d="M9.28 86.72L9.28 77.44L0 77.44L0 72.67L9.28 72.67L9.28 63.39L14.05 63.39L14.05 72.67L23.33 72.67L23.33 77.44L14.05 77.44L14.05 86.72L9.28 86.72Z" fill="#778187" fill-opacity="1.000000" fill-rule="nonzero"/>
	</g>
</svg>
