<svg width="146.330017" height="150.000000" viewBox="0 0 146.33 150" fill="none" xmlns="http://www.w3.org/2000/svg" xmlns:xlink="http://www.w3.org/1999/xlink">
	<desc>
			Created with Pixso.
	</desc>
	<defs>
		<clipPath id="clip44_754">
			<rect id="softline" rx="0.000000" width="145.330002" height="149.000000" transform="translate(0.500000 0.500000)" fill="white" fill-opacity="0"/>
		</clipPath>
	</defs>
	<rect id="softline" rx="0.000000" width="145.330002" height="149.000000" transform="translate(0.500000 0.500000)" fill="#FFFFFF" fill-opacity="0"/>
	<g clip-path="url(#clip44_754)">
		<g style="mix-blend-mode:luminosity">
			<path id="Vector" d="M0.15 83.41L7.73 82.69C7.95 83.45 8.41 84.13 9.04 84.61C9.72 85.03 10.5 85.23 11.3 85.19C12.14 85.24 12.98 85.01 13.68 84.53C13.88 84.4 14.05 84.21 14.16 84C14.27 83.79 14.33 83.55 14.34 83.31C14.32 83.04 14.23 82.78 14.08 82.56C13.93 82.33 13.71 82.16 13.46 82.05C12.4 81.68 11.3 81.42 10.17 81.27C8.3 80.99 6.45 80.56 4.65 79.98C3.61 79.58 2.7 78.88 2.05 77.98C1.34 77.06 0.97 75.93 0.99 74.77C0.96 73.54 1.36 72.33 2.12 71.37C2.95 70.36 4.04 69.61 5.28 69.21C7.02 68.68 8.84 68.44 10.66 68.49C12.42 68.44 14.19 68.65 15.9 69.1C16.98 69.4 17.97 69.98 18.78 70.77C19.61 71.65 20.25 72.7 20.66 73.85L13.35 74.61C13.21 74.04 12.89 73.53 12.42 73.17C11.78 72.75 11.03 72.54 10.26 72.56C9.61 72.5 8.95 72.67 8.4 73.02C8.22 73.15 8.07 73.32 7.97 73.51C7.87 73.7 7.81 73.92 7.81 74.14C7.8 74.37 7.87 74.6 8 74.8C8.13 75 8.31 75.15 8.53 75.24C9.58 75.62 10.67 75.85 11.79 75.92C13.72 76.07 15.62 76.48 17.45 77.12C18.59 77.56 19.58 78.33 20.29 79.33C20.94 80.24 21.28 81.34 21.28 82.46C21.26 83.66 20.9 84.83 20.24 85.83C19.43 87 18.29 87.91 16.96 88.43C15.01 89.15 12.93 89.48 10.86 89.4C7.22 89.4 4.63 88.88 3.09 87.84C1.56 86.81 0.49 85.22 0.12 83.41L0.15 83.41Z" fill="#778187" fill-opacity="1.000000" fill-rule="nonzero"/>
			<path id="Vector" d="M25.74 86.96C27.72 88.58 30.31 89.4 33.51 89.4C37.1 89.4 39.92 88.42 41.96 86.46C42.96 85.48 43.76 84.31 44.28 83.01C44.81 81.71 45.06 80.32 45.01 78.92C45.08 76.39 44.19 73.92 42.54 72.01C40.49 69.7 37.47 68.55 33.49 68.54C29.99 68.54 27.21 69.53 25.16 71.5C24.15 72.47 23.35 73.64 22.83 74.93C22.3 76.23 22.04 77.62 22.09 79.02C22.04 80.53 22.35 82.04 22.98 83.41C23.61 84.78 24.55 85.99 25.72 86.94L25.74 86.96ZM30.84 74.98C31.17 74.57 31.59 74.24 32.07 74.01C32.55 73.78 33.08 73.67 33.61 73.68C34.12 73.68 34.62 73.79 35.09 74.01C35.55 74.24 35.95 74.56 36.26 74.96C37.06 76.1 37.43 77.48 37.33 78.87C37.33 80.74 36.98 82.1 36.27 82.95C35.94 83.36 35.53 83.68 35.06 83.9C34.59 84.13 34.07 84.24 33.55 84.24C33.03 84.24 32.52 84.13 32.05 83.9C31.57 83.68 31.16 83.36 30.83 82.95C30.11 82.1 29.75 80.77 29.75 78.97C29.75 77.19 30.11 75.87 30.84 75.01L30.84 74.98Z" fill="#778187" fill-opacity="1.000000" fill-rule="nonzero"/>
			<path id="Vector" d="M55.32 68.99L58.96 68.99L58.96 74.61L55.32 74.61L55.32 88.94L47.66 88.94L47.66 74.61L44.78 74.61L44.78 68.99L47.66 68.99L47.66 68.09C47.66 67.2 47.75 66.3 47.91 65.42C48.04 64.55 48.38 63.73 48.91 63.03C49.45 62.36 50.15 61.85 50.94 61.52C52.17 61.08 53.47 60.89 54.78 60.95C56.74 61 58.69 61.15 60.64 61.42L59.77 66.03C59.04 65.9 58.29 65.83 57.55 65.81C57.03 65.76 56.5 65.88 56.06 66.16C55.72 66.44 55.5 66.82 55.42 67.25C55.33 67.83 55.3 68.41 55.32 68.99L55.32 68.99Z" fill="#778187" fill-opacity="1.000000" fill-rule="nonzero"/>
			<path id="Vector" d="M69.04 74.61L69.04 81.69C69 82.26 69.08 82.83 69.28 83.37C69.42 83.59 69.61 83.76 69.85 83.88C70.08 83.99 70.34 84.04 70.59 84.01C71.4 83.97 72.2 83.8 72.95 83.52L73.52 88.78C71.79 89.18 70.01 89.38 68.23 89.4C66.79 89.49 65.35 89.24 64.03 88.68C63.12 88.19 62.42 87.4 62.02 86.45C61.51 84.9 61.29 83.26 61.38 81.63L61.38 74.61L58.58 74.61L58.58 68.99L61.38 68.99L61.38 65.33L69.04 61.41L69.04 74.61Z" fill="#778187" fill-opacity="1.000000" fill-rule="nonzero"/>
			<path id="Vector" d="M82.9 61.41L75.24 61.41L75.24 88.94L82.9 88.94L82.9 61.41Z" fill="#778187" fill-opacity="1.000000" fill-rule="nonzero"/>
			<path id="Vector" d="M93.78 68.99L86.12 68.99L86.12 88.94L93.78 88.94L93.78 68.99Z" fill="#778187" fill-opacity="1.000000" fill-rule="nonzero"/>
			<path id="Vector" d="M93.78 61.41L86.12 61.41L86.12 66.64L93.78 66.64L93.78 61.41Z" fill="#778187" fill-opacity="1.000000" fill-rule="nonzero"/>
			<path id="Vector" d="M96.71 68.99L103.85 68.99L103.85 72.24C104.71 71.07 105.81 70.09 107.07 69.36C108.3 68.76 109.67 68.47 111.05 68.51C111.96 68.46 112.87 68.6 113.73 68.92C114.58 69.25 115.36 69.75 116.01 70.4C117.2 71.66 117.79 73.6 117.79 76.23L117.79 88.94L110.14 88.94L110.14 77.97C110.22 77.03 109.97 76.08 109.42 75.31C109.17 75.04 108.87 74.84 108.53 74.7C108.19 74.57 107.83 74.51 107.46 74.53C107.04 74.52 106.61 74.61 106.23 74.79C105.84 74.98 105.5 75.24 105.23 75.57C104.65 76.29 104.37 77.53 104.37 79.35L104.37 88.94L96.71 88.94L96.71 68.99Z" fill="#778187" fill-opacity="1.000000" fill-rule="nonzero"/>
			<path id="Vector" d="M142.61 80.03C142.7 77.82 142.25 75.62 141.31 73.61C140.48 71.98 139.15 70.66 137.53 69.82C135.88 68.95 133.63 68.52 130.78 68.52C127.27 68.52 124.52 69.48 122.52 71.4C121.53 72.38 120.74 73.57 120.23 74.87C119.71 76.17 119.47 77.57 119.53 78.97C119.47 80.99 119.99 82.99 121.01 84.73C121.9 86.25 123.2 87.49 124.77 88.28C126.73 89.11 128.85 89.49 130.98 89.4C134.02 89.4 136.35 88.97 137.97 88.09C139.74 87.08 141.18 85.58 142.13 83.78L134.62 83.1C134.26 83.59 133.81 84.02 133.3 84.35C132.66 84.72 131.93 84.92 131.18 84.91C130.64 84.93 130.1 84.82 129.6 84.6C129.1 84.38 128.66 84.04 128.3 83.62C127.71 82.83 127.37 81.88 127.33 80.9L142.61 80.9L142.61 80.03ZM127.38 77.26C127.41 76.3 127.7 75.37 128.21 74.55C128.52 74.14 128.91 73.8 129.36 73.55C129.81 73.3 130.31 73.15 130.82 73.1C131.33 73.06 131.84 73.12 132.33 73.28C132.81 73.45 133.26 73.71 133.64 74.06C134.38 74.96 134.8 76.09 134.83 77.26L127.38 77.26Z" fill="#778187" fill-opacity="1.000000" fill-rule="nonzero"/>
			<path id="Vector" d="M35.28 64.06C42.18 64.69 48.99 66 55.64 67.96C62.42 69.79 73.21 68.99 73.21 68.99L73.21 74.61C66.11 75.31 58.94 74.49 52.18 72.2C38.5 67.22 32.34 66.22 25.03 65.72C15.13 65 3.34 66.52 3.34 66.52L3.23 65.5C3.23 65.5 20.3 62.47 35.28 64.06Z" fill="#778187" fill-opacity="1.000000" fill-rule="nonzero"/>
			<path id="Vector" d="M142.45 65.11L142.83 65.11C143.37 65.11 143.42 64.83 143.42 64.69C143.42 64.32 142.9 64.32 142.83 64.32L142.45 64.32L142.45 65.11ZM143.12 63.67C143.89 63.67 144.29 64.08 144.29 64.62C144.3 64.81 144.23 65 144.11 65.15C143.98 65.3 143.81 65.4 143.62 65.43C143.78 65.5 143.91 65.63 143.99 65.8L144.55 67.16L143.62 67.16L143.16 66.05C143.13 65.96 143.07 65.89 142.99 65.84C142.91 65.79 142.81 65.76 142.72 65.77L142.45 65.77L142.45 67.16L141.59 67.16L141.59 63.66L143.12 63.67ZM142.89 68.04C143.41 68.04 143.92 67.89 144.36 67.6C144.79 67.31 145.13 66.9 145.33 66.41C145.53 65.93 145.58 65.4 145.48 64.89C145.38 64.37 145.13 63.9 144.76 63.53C144.39 63.16 143.92 62.91 143.41 62.81C142.89 62.71 142.36 62.76 141.88 62.96C141.4 63.16 140.98 63.5 140.69 63.93C140.4 64.37 140.25 64.88 140.25 65.4C140.25 66.1 140.53 66.77 141.02 67.27C141.52 67.76 142.19 68.04 142.89 68.04ZM142.89 61.97C143.57 61.97 144.23 62.17 144.8 62.55C145.36 62.92 145.8 63.46 146.06 64.09C146.32 64.72 146.39 65.41 146.26 66.07C146.13 66.74 145.8 67.35 145.32 67.83C144.84 68.31 144.23 68.64 143.56 68.77C142.89 68.9 142.2 68.83 141.58 68.57C140.95 68.31 140.41 67.87 140.03 67.31C139.66 66.75 139.46 66.08 139.46 65.4C139.46 64.95 139.54 64.5 139.72 64.09C139.89 63.67 140.14 63.29 140.46 62.97C140.78 62.65 141.16 62.4 141.58 62.23C141.99 62.06 142.44 61.97 142.89 61.97Z" fill="#778187" fill-opacity="1.000000" fill-rule="nonzero"/>
		</g>
	</g>
</svg>
