<svg width="15.000000" height="15.000000" viewBox="0 0 15 15" fill="none" xmlns="http://www.w3.org/2000/svg" xmlns:xlink="http://www.w3.org/1999/xlink">
	<desc>
			Created with Pixso.
	</desc>
	<defs/>
	<path id="Vector" d="M13 7.21L12 7C10.93 7 9.92 6.57 9.17 5.82C8.42 5.07 8 4.06 8 3L7.79 2L7.59 0L7.4 0L7.2 2L7 3C7 4.06 6.57 5.07 5.82 5.82C5.07 6.57 4.06 7 3 7L2 7.21L0 7.39L0 4C0 2.93 0.42 1.92 1.17 1.17C1.92 0.42 2.93 0 4 0L11 0C12.06 0 13.07 0.42 13.82 1.17C14.57 1.92 15 2.93 15 4L15 7.39L13 7.21ZM2 7.78L3 8C4.06 8 5.07 8.42 5.82 9.17C6.57 9.92 7 10.93 7 12L7.2 13L7.4 15L7.59 15L7.79 13L8 12C8 10.93 8.42 9.92 9.17 9.17C9.92 8.42 10.93 8 12 8L13 7.78L15 7.6L15 11C15 12.06 14.57 13.07 13.82 13.82C13.07 14.57 12.06 15 11 15L4 15C2.93 15 1.92 14.57 1.17 13.82C0.42 13.07 0 12.06 0 11L0 7.6L2 7.78Z" fill="#FBFBFD" fill-opacity="1.000000" fill-rule="evenodd"/>
</svg>
