<svg width="15.000000" height="15.000000" viewBox="0 0 15 15" fill="none" xmlns="http://www.w3.org/2000/svg" xmlns:xlink="http://www.w3.org/1999/xlink">
	<desc>
			Created with Pixso.
	</desc>
	<defs/>
	<path id="Vector" d="M4 0L11 0C12.06 0 13.07 0.42 13.82 1.17C14.57 1.92 15 2.93 15 4L15 11C15 12.06 14.57 13.07 13.82 13.82C13.07 14.57 12.06 15 11 15L4 15C2.93 15 1.92 14.57 1.17 13.82C0.42 13.07 0 12.06 0 11L0 4C0 2.93 0.42 1.92 1.17 1.17C1.92 0.42 2.93 0 4 0ZM4 2L11 2C11.53 2 12.03 2.21 12.41 2.58C12.78 2.96 13 3.46 13 4L13 11C13 11.53 12.78 12.03 12.41 12.41C12.03 12.78 11.53 13 11 13L4 13C3.46 13 2.96 12.78 2.58 12.41C2.21 12.03 2 11.53 2 11L2 4C2 3.46 2.21 2.96 2.58 2.58C2.96 2.21 3.46 2 4 2ZM7.5 4C8.19 4 8.86 4.2 9.44 4.58C10.02 4.97 10.46 5.52 10.73 6.16C10.99 6.8 11.06 7.5 10.93 8.18C10.79 8.86 10.46 9.48 9.97 9.97C9.48 10.46 8.86 10.79 8.18 10.93C7.5 11.06 6.8 10.99 6.16 10.73C5.52 10.46 4.97 10.02 4.58 9.44C4.2 8.86 4 8.19 4 7.5C4 6.57 4.36 5.68 5.02 5.02C5.68 4.36 6.57 4 7.5 4ZM7.5 6C7.79 6 8.08 6.08 8.33 6.25C8.58 6.41 8.77 6.65 8.88 6.92C8.99 7.2 9.02 7.5 8.97 7.79C8.91 8.08 8.77 8.35 8.56 8.56C8.35 8.77 8.08 8.91 7.79 8.97C7.5 9.02 7.2 8.99 6.92 8.88C6.65 8.77 6.41 8.58 6.25 8.33C6.08 8.08 6 7.79 6 7.5C6 7.1 6.15 6.72 6.43 6.43C6.72 6.15 7.1 6 7.5 6Z" fill="#FBFBFD" fill-opacity="1.000000" fill-rule="evenodd"/>
</svg>
