<svg xmlns="http://www.w3.org/2000/svg" width="15" height="15" fill="none"><path fill="#888" fill-rule="evenodd" d="M4 0h7c1.06 0 2.07.42 2.82 1.17S15 2.93 15 4v7c0 1.06-.43 2.07-1.18 2.82A3.99 3.99 0 0 1 11 15H4c-1.07 0-2.08-.43-2.83-1.18A3.98 3.98 0 0 1 0 11V4c0-1.07.42-2.08 1.17-2.83S2.93 0 4 0Zm0 2h7c.53 0 1.03.21 1.41.58.37.38.59.88.59 1.42v7c0 .53-.22 1.03-.59 1.41-.38.37-.88.59-1.41.59H4c-.54 0-1.04-.22-1.42-.59C2.21 12.03 2 11.53 2 11V4c0-.54.21-1.04.58-1.42C2.96 2.21 3.46 2 4 2Zm3.5 2c.69 0 1.36.2 1.94.58.58.39 1.02.94 1.29 1.58.26.64.33 1.34.2 2.02-.14.68-.47 1.3-.96 1.79s-1.11.82-1.79.96c-.68.13-1.38.06-2.02-.2-.64-.27-1.19-.71-1.58-1.29C4.2 8.86 4 8.19 4 7.5c0-.93.36-1.82 1.02-2.48C5.68 4.36 6.57 4 7.5 4Zm0 2c.29 0 .58.08.83.25.25.16.44.4.55.67.11.28.14.58.09.87-.06.29-.2.56-.41.77-.21.21-.48.35-.77.41-.29.05-.59.02-.87-.09-.27-.11-.51-.3-.67-.55a1.53 1.53 0 0 1 .18-1.9C6.72 6.15 7.1 6 7.5 6Z"/></svg>