<svg width="20.000000" height="20.000000" viewBox="0 0 20 20" fill="none" xmlns="http://www.w3.org/2000/svg" xmlns:xlink="http://www.w3.org/1999/xlink">
	<desc>
			Created with Pixso.
	</desc>
	<defs/>
	<path id="Vector" d="M7.38 18C4.24 16.88 2 13.82 2 10.22C2 5.68 5.58 2 10 2C14.41 2 18 5.68 18 10.22C18 13.82 15.75 16.87 12.63 17.99L12.27 15.13C13.89 14.28 14.99 12.56 14.99 10.56C14.99 8.22 13.45 6.24 11.36 5.63L11.36 5.4L12.32 5.4L12.32 4.67L10.08 2.99L7.77 4.67L7.77 5.48L8.76 5.48L8.76 5.59C6.6 6.16 5 8.17 5 10.56C5 12.58 6.13 14.33 7.78 15.17L7.38 18ZM12.18 14.37C13.45 13.6 14.29 12.19 14.29 10.56C14.29 8.61 13.07 6.96 11.36 6.37L11.36 8.26L12.58 8.26L11.57 9.4L12.18 14.37ZM7.88 14.42L8.59 9.4L7.52 8.26L8.76 8.26L8.76 6.33C6.98 6.88 5.69 8.57 5.69 10.56C5.69 12.22 6.57 13.66 7.88 14.42Z" fill="#FBFBFD" fill-opacity="1.000000" fill-rule="evenodd"/>
</svg>
