<svg xmlns="http://www.w3.org/2000/svg" width="16" height="16" fill="none"><path fill="#888" fill-rule="evenodd" d="M5.38 16C2.24 14.88 0 11.82 0 8.22 0 3.68 3.58 0 8 0c4.41 0 8 3.68 8 8.22 0 3.6-2.25 6.65-5.37 7.77l-.36-2.86c1.62-.85 2.72-2.57 2.72-4.57 0-2.34-1.54-4.32-3.63-4.93V3.4h.96v-.73L8.08.99 5.77 2.67v.81h.99v.11C4.6 4.16 3 6.17 3 8.56c0 2.02 1.13 3.77 2.78 4.61L5.38 16Zm4.8-3.63c1.27-.77 2.11-2.18 2.11-3.81 0-1.95-1.22-3.6-2.93-4.19v1.89h1.22L9.57 7.4l.61 4.97Zm-4.3.05.71-5.02-1.07-1.14h1.24V4.33c-1.78.55-3.07 2.24-3.07 4.23 0 1.66.88 3.1 2.19 3.86Z"/></svg>