<svg xmlns="http://www.w3.org/2000/svg" width="8" height="14" fill="none"><path fill="#888" fill-rule="evenodd" d="M4.34 9.19c.03-.01.06-.01.09-.02.14-.02.27-.05.36-.04.19.03.48.41.73.87.28.49.48.94.47 1.23-.01.29-.47.76-.72.76-.25.01-.43 0-.89-.04-.47-.05-1.14-.5-1.33-.8-.04-.07-.08-.13-.12-.2-.14-.23-.26-.47-.43-.95-.12-.36-.23-.73-.3-1.1-.06-.26-.1-.53-.14-.79a10.367 10.367 0 0 1 0-2.23 10.056 10.056 0 0 1 .44-1.89c.17-.46.28-.72.42-.94.04-.07.08-.14.13-.21.19-.29.83-.75 1.33-.8C4.82 2 5.01 2 5.2 2h.07c.23-.01.72.46.72.76.01.3-.19.74-.47 1.23-.25.46-.49.84-.73.87-.12.01-.29-.02-.45-.05-.16-.02-.3-.05-.37-.03-.15.04-.43.15-.48.52 0 .02 0 .04-.01.06-.04.32-.05.38-.07.63-.03.34-.04.67-.04 1 0 .34.01.67.04 1.01v.01c.02.25.03.36.08.68.05.31.25.48.48.52.11.01.24 0 .37-.02Zm1.03-2.42c.77-.21 1.22-.78 1.35-.95.23-.29.43-.62.55-.86.16-.27.32-.59.45-.91.12-.3.28-.77.27-1.31 0-.57-.22-1.01-.35-1.24-.15-.25-.33-.47-.5-.64-.17-.17-.38-.35-.61-.49-.17-.1-.64-.38-1.29-.37h-.06c-.22 0-.47 0-1 .05-.7.07-1.3.39-1.66.62-.36.23-.83.6-1.14 1.07-.29.44-.5.83-.77 1.59A11.2 11.2 0 0 0 0 6.99c0 1.24.2 2.49.61 3.67.28.78.49 1.15.75 1.55.33.53.84.91 1.19 1.13.36.22.95.53 1.62.6.54.05.79.06 1.11.05.61 0 1.07-.25 1.27-.38.25-.15.46-.33.62-.51.17-.17.34-.39.48-.64.13-.22.33-.64.34-1.17a3.14 3.14 0 0 0-.27-1.34c-.13-.33-.29-.65-.45-.93-.16-.28-.36-.6-.59-.89a3.09 3.09 0 0 0-.48-.48c-.14-.11-.43-.32-.83-.43v-.45Z"/></svg>