<svg xmlns="http://www.w3.org/2000/svg" width="14" height="12" fill="none"><path fill="#888" fill-rule="evenodd" d="M11.98 11.04c-.02.2-.1.38-.22.54-.13.15-.3.26-.49.32a.99.99 0 0 1-.59-.01.993.993 0 0 1-.48-.33c-1.09-.86-2.78-2.1-2.78-2.1s-1.23 2.16-1.45 2.38c-.07.06-.16.1-.25.13-.09.02-.18.03-.28.02a.804.804 0 0 1-.26-.09.796.796 0 0 1-.21-.2c-.01-.03-.02-.06-.04-.1l.69-3.43 4.91-4.8-6.7 3.8S.81 6.27.36 6.1a.806.806 0 0 1-.28-.27.726.726 0 0 1-.08-.38c0-.13.05-.26.12-.37.08-.1.19-.19.31-.24C1.07 4.52 12.34.23 12.72.12c.38-.11 1.38-.4 1.27.57-.11.97-1.9 9.82-2.01 10.35Z"/></svg>