<svg width="13.999939" height="12.000000" viewBox="0 0 13.9999 12" fill="none" xmlns="http://www.w3.org/2000/svg" xmlns:xlink="http://www.w3.org/1999/xlink">
	<desc>
			Created with Pixso.
	</desc>
	<defs/>
	<path id="Vector" d="M11.98 11.04C11.96 11.24 11.88 11.42 11.76 11.58C11.63 11.73 11.46 11.84 11.27 11.9C11.08 11.96 10.87 11.95 10.68 11.89C10.49 11.83 10.33 11.72 10.2 11.56C9.11 10.7 7.42 9.46 7.42 9.46C7.42 9.46 6.19 11.62 5.97 11.84C5.9 11.9 5.81 11.94 5.72 11.97C5.63 11.99 5.54 12 5.44 11.99C5.35 11.98 5.26 11.94 5.18 11.9C5.1 11.85 5.03 11.78 4.97 11.7C4.96 11.67 4.95 11.64 4.93 11.6L5.62 8.17L10.53 3.37L3.83 7.17C3.83 7.17 0.81 6.27 0.36 6.1C0.24 6.03 0.15 5.94 0.08 5.83C0.02 5.71 -0.01 5.58 0 5.45C0 5.32 0.05 5.19 0.12 5.08C0.2 4.98 0.31 4.89 0.43 4.84C1.07 4.52 12.34 0.23 12.72 0.12C13.1 0.01 14.1 -0.28 13.99 0.69C13.88 1.66 12.09 10.51 11.98 11.04Z" fill="#FBFBFD" fill-opacity="1.000000" fill-rule="evenodd"/>
</svg>
