<svg xmlns="http://www.w3.org/2000/svg" width="15" height="9" fill="none"><path fill="#888" fill-rule="evenodd" d="M8.95.77v3.26c-.01.05 0 .1.02.15.02.05.06.1.1.13.04.04.09.06.14.07.05.01.11.01.16 0 .3-.02.97-2.8 1.27-3.4.16-.34.42-.63.74-.82.1-.1.23-.15.36-.16h2.87c.08.01.15.05.21.1.06.04.11.11.14.18.03.07.04.15.03.23-.01.08-.04.15-.08.22-.23.5-2.15 3.6-2.25 3.73-.12.16-.2.35-.23.55.04.23.14.45.31.62.2.23 1.81 2.01 1.96 2.16.14.16.23.36.27.57-.04.18-.14.35-.28.46-.15.11-.33.17-.52.15h-2.33c-.35-.12-.67-.31-.95-.56-.22-.2-1.05-1.15-1.18-1.28a.327.327 0 0 0-.15-.11c-.06-.03-.13-.04-.19-.03-.15 0-.44.01-.42.58.03.4-.05.79-.24 1.14-.1.09-.21.17-.34.21-.13.05-.26.07-.4.07a5.03 5.03 0 0 1-2.9-.73C3.51 7.28 1.72 4.68.89 3.01A6.48 6.48 0 0 1 0 .3C.04.13.04 0 .22 0h2.59c.14.07.27.19.35.33.07.1.64 1.81.82 2.11.17.3 1.03 1.95 1.5 1.95.15-.03.29-.13.38-.26.08-.13.12-.29.09-.44V1.51c-.19-.44-.54-.8-.98-1 .11-.14.25-.26.41-.35.16-.09.34-.14.52-.15.59-.02 2.09-.02 2.42.03.17.03.33.12.44.25.11.14.18.31.19.48Z"/></svg>