<svg width="15.000000" height="9.000000" viewBox="0 0 15 9" fill="none" xmlns="http://www.w3.org/2000/svg" xmlns:xlink="http://www.w3.org/1999/xlink">
	<desc>
			Created with Pixso.
	</desc>
	<defs/>
	<path id="Vector" d="M8.95 0.77L8.95 4.03C8.94 4.08 8.95 4.13 8.97 4.18C8.99 4.23 9.03 4.28 9.07 4.31C9.11 4.35 9.16 4.37 9.21 4.38C9.26 4.39 9.32 4.39 9.37 4.38C9.67 4.36 10.34 1.58 10.64 0.98C10.8 0.64 11.06 0.35 11.38 0.16C11.48 0.06 11.61 0.01 11.74 0L14.61 0C14.69 0.01 14.76 0.05 14.82 0.1C14.88 0.14 14.93 0.21 14.96 0.28C14.99 0.35 15 0.43 14.99 0.51C14.98 0.59 14.95 0.66 14.91 0.73C14.68 1.23 12.76 4.33 12.66 4.46C12.54 4.62 12.46 4.81 12.43 5.01C12.47 5.24 12.57 5.46 12.74 5.63C12.94 5.86 14.55 7.64 14.7 7.79C14.84 7.95 14.93 8.15 14.97 8.36C14.93 8.54 14.83 8.71 14.69 8.82C14.54 8.93 14.36 8.99 14.17 8.97C13.55 8.97 12.02 8.97 11.84 8.97C11.49 8.85 11.17 8.66 10.89 8.41C10.67 8.21 9.84 7.26 9.71 7.13C9.67 7.08 9.62 7.04 9.56 7.02C9.5 6.99 9.43 6.98 9.37 6.99C9.22 6.99 8.93 7 8.95 7.57C8.98 7.97 8.9 8.36 8.71 8.71C8.61 8.8 8.5 8.88 8.37 8.92C8.24 8.97 8.11 8.99 7.97 8.99C6.96 9.05 5.94 8.79 5.07 8.26C3.51 7.28 1.72 4.68 0.89 3.01C0.4 2.19 0.09 1.26 0 0.3C0.04 0.13 0.04 0 0.22 0C0.4 0 2.6 0 2.81 0C2.95 0.07 3.08 0.19 3.16 0.33C3.23 0.43 3.8 2.14 3.98 2.44C4.15 2.74 5.01 4.39 5.48 4.39C5.63 4.36 5.77 4.26 5.86 4.13C5.94 4 5.98 3.84 5.95 3.69C5.95 3.29 5.95 1.71 5.95 1.51C5.76 1.07 5.41 0.71 4.97 0.51C5.08 0.37 5.22 0.25 5.38 0.16C5.54 0.07 5.72 0.02 5.9 0.01C6.49 -0.01 7.99 -0.01 8.32 0.04C8.49 0.07 8.65 0.16 8.76 0.29C8.87 0.43 8.94 0.6 8.95 0.77Z" fill="#FBFBFD" fill-opacity="1.000000" fill-rule="evenodd"/>
</svg>
