<svg xmlns="http://www.w3.org/2000/svg" width="15" height="15" fill="none"><path fill="#888" fill-rule="evenodd" d="M7.5 15c-1.42-.01-2.8-.42-3.99-1.18L0 15l1.17-3.52A7.429 7.429 0 0 1 .06 6.75C.22 5.1.93 3.54 2.08 2.34 3.22 1.13 4.73.34 6.37.08c1.64-.25 3.32.05 4.77.86 1.45.8 2.59 2.07 3.25 3.6.65 1.53.78 3.23.36 4.84a7.4 7.4 0 0 1-2.67 4.05A7.448 7.448 0 0 1 7.5 15Zm1.63-6.38c.49.16 1 .29 1.52.4.05.01.1.03.15.06a.4.4 0 0 1 .12.11c.03.04.05.09.06.14.01.06.02.11.01.17v.29c0 .1-.02.2-.06.3a.84.84 0 0 1-.18.24c-.25.25-.54.45-.86.59a3.419 3.419 0 0 1-2.66-.8c-.47-.32-.91-.68-1.31-1.08s-.77-.84-1.08-1.31c-.31-.37-.54-.79-.68-1.25-.13-.46-.17-.94-.11-1.41.14-.32.34-.61.59-.86.06-.08.14-.14.24-.18.09-.05.19-.06.3-.05h.29c.1-.02.22.01.3.08.09.06.15.16.17.27.15.59.26 1.02.41 1.5.06.2-.01.25-.17.37-.1.08-.18.14-.26.19-.05.03-.09.05-.13.09a.33.33 0 0 0-.07.13c-.02.05-.02.1-.02.15 0 .05.02.1.05.14.25.5.58.95.97 1.35.39.38.84.71 1.34.96.04.03.09.04.14.05.05 0 .1 0 .15-.02.05-.01.09-.04.13-.07.03-.04.06-.08.09-.13.06-.08.11-.15.19-.26.01-.03.03-.07.05-.09.03-.03.06-.06.09-.07a.26.26 0 0 1 .11-.03c.04 0 .08.01.12.02v.01Z"/></svg>