<svg width="15.000000" height="15.000000" viewBox="0 0 15 15" fill="none" xmlns="http://www.w3.org/2000/svg" xmlns:xlink="http://www.w3.org/1999/xlink">
	<desc>
			Created with Pixso.
	</desc>
	<defs/>
	<path id="Vector" d="M7.5 15C6.08 14.99 4.7 14.58 3.51 13.82L0 15L1.17 11.48C0.28 10.07 -0.11 8.41 0.06 6.75C0.22 5.1 0.93 3.54 2.08 2.33C3.22 1.13 4.73 0.34 6.37 0.08C8.01 -0.17 9.69 0.13 11.14 0.94C12.59 1.74 13.73 3.01 14.39 4.54C15.04 6.07 15.17 7.77 14.75 9.38C14.34 10.99 13.4 12.42 12.08 13.43C10.77 14.45 9.16 15 7.5 15ZM9.13 8.62C9.62 8.78 10.13 8.91 10.65 9.02C10.7 9.03 10.75 9.05 10.8 9.08C10.84 9.1 10.88 9.14 10.92 9.19C10.95 9.23 10.97 9.28 10.98 9.33C10.99 9.39 11 9.44 10.99 9.5L10.99 9.79C10.99 9.89 10.97 9.99 10.93 10.09C10.89 10.18 10.82 10.26 10.75 10.33C10.5 10.58 10.21 10.78 9.89 10.92C9.41 10.98 8.93 10.94 8.47 10.8C8.01 10.66 7.59 10.43 7.23 10.12C6.76 9.8 6.32 9.44 5.92 9.04C5.52 8.64 5.15 8.2 4.84 7.73C4.53 7.36 4.3 6.94 4.16 6.48C4.03 6.02 3.99 5.54 4.05 5.07C4.19 4.75 4.39 4.46 4.64 4.21C4.7 4.13 4.78 4.07 4.88 4.03C4.97 3.98 5.07 3.97 5.18 3.98L5.47 3.98C5.57 3.96 5.69 3.99 5.77 4.06C5.86 4.12 5.92 4.22 5.94 4.33C6.09 4.92 6.2 5.35 6.35 5.83C6.41 6.03 6.34 6.08 6.18 6.2C6.08 6.28 6 6.34 5.92 6.39C5.87 6.42 5.83 6.44 5.79 6.48C5.76 6.52 5.73 6.56 5.72 6.61C5.7 6.66 5.7 6.71 5.7 6.76C5.7 6.81 5.72 6.86 5.75 6.9C6 7.4 6.33 7.85 6.72 8.25C7.11 8.63 7.56 8.96 8.06 9.21C8.1 9.24 8.15 9.25 8.2 9.26C8.25 9.26 8.3 9.26 8.35 9.24C8.4 9.23 8.44 9.2 8.48 9.17C8.51 9.13 8.54 9.09 8.57 9.04C8.63 8.96 8.68 8.89 8.76 8.78C8.77 8.75 8.79 8.71 8.81 8.69C8.84 8.66 8.87 8.64 8.9 8.62C8.94 8.6 8.98 8.59 9.01 8.59C9.05 8.59 9.09 8.6 9.13 8.61L9.13 8.62Z" fill="#FBFBFD" fill-opacity="1.000000" fill-rule="evenodd"/>
</svg>
